<svg width="54" height="50" viewBox="0 0 54 50" fill="none" xmlns="http://www.w3.org/2000/svg">
<path d="M27 50C23.875 50 20.9479 49.4062 18.2188 48.2188C15.4896 47.0312 13.1146 45.4271 11.0938 43.4062C9.07292 41.3854 7.46875 39.0104 6.28125 36.2812C5.09375 33.5521 4.5 30.625 4.5 27.5C4.5 24.375 5.09375 21.4479 6.28125 18.7188C7.46875 15.9896 9.07292 13.6146 11.0938 11.5938C13.1146 9.57292 15.4896 7.96875 18.2188 6.78125C20.9479 5.59375 23.875 5 27 5C30.125 5 33.0521 5.59375 35.7813 6.78125C38.5104 7.96875 40.8854 9.57292 42.9062 11.5938C44.9271 13.6146 46.5313 15.9896 47.7188 18.7188C48.9063 21.4479 49.5 24.375 49.5 27.5C49.5 30.625 48.9063 33.5521 47.7188 36.2812C46.5313 39.0104 44.9271 41.3854 42.9062 43.4062C40.8854 45.4271 38.5104 47.0312 35.7813 48.2188C33.0521 49.4062 30.125 50 27 50ZM34 38L37.5 34.5L29.5 26.5V15H24.5V28.5L34 38ZM11 0.875L14.5 4.375L3.875 15L0.375 11.5L11 0.875ZM43 0.875L53.625 11.5L50.125 15L39.5 4.375L43 0.875ZM27 45C31.875 45 36.0104 43.3021 39.4063 39.9062C42.8021 36.5104 44.5 32.375 44.5 27.5C44.5 22.625 42.8021 18.4896 39.4063 15.0938C36.0104 11.6979 31.875 10 27 10C22.125 10 17.9896 11.6979 14.5938 15.0938C11.1979 18.4896 9.5 22.625 9.5 27.5C9.5 32.375 11.1979 36.5104 14.5938 39.9062C17.9896 43.3021 22.125 45 27 45Z" fill="#1C1B1F"/>
</svg>
