<svg width="1203" height="220" viewBox="0 0 1203 220" fill="none" xmlns="http://www.w3.org/2000/svg">
<rect width="1203" height="220" rx="40" fill="white"/>
<path d="M389.922 59H386.156V39.3438H379.469V36.1562H396.594V39.3438H389.922V59ZM408.484 41.375C408.776 41.375 409.094 41.3906 409.438 41.4219C409.781 41.4531 410.078 41.4948 410.328 41.5469L409.984 44.9844C409.766 44.9219 409.495 44.875 409.172 44.8438C408.859 44.8125 408.578 44.7969 408.328 44.7969C407.672 44.7969 407.047 44.9062 406.453 45.125C405.859 45.3333 405.333 45.6562 404.875 46.0938C404.417 46.5208 404.057 47.0573 403.797 47.7031C403.536 48.349 403.406 49.099 403.406 49.9531V59H399.719V41.7031H402.594L403.094 44.75H403.266C403.609 44.1354 404.036 43.5729 404.547 43.0625C405.057 42.5521 405.641 42.1458 406.297 41.8438C406.964 41.5312 407.693 41.375 408.484 41.375ZM428.609 41.7031V59H425.719L425.219 56.6719H425.016C424.651 57.2656 424.188 57.7604 423.625 58.1562C423.062 58.5417 422.438 58.8281 421.75 59.0156C421.062 59.2135 420.339 59.3125 419.578 59.3125C418.276 59.3125 417.161 59.0938 416.234 58.6562C415.318 58.2083 414.615 57.5208 414.125 56.5938C413.635 55.6667 413.391 54.4688 413.391 53V41.7031H417.078V52.3125C417.078 53.6562 417.349 54.6615 417.891 55.3281C418.443 55.9948 419.297 56.3281 420.453 56.3281C421.568 56.3281 422.453 56.099 423.109 55.6406C423.766 55.1823 424.229 54.5052 424.5 53.6094C424.781 52.7135 424.922 51.6146 424.922 50.3125V41.7031H428.609ZM445.5 54.0625C445.5 55.1979 445.224 56.1562 444.672 56.9375C444.12 57.7188 443.312 58.3125 442.25 58.7188C441.198 59.1146 439.906 59.3125 438.375 59.3125C437.167 59.3125 436.125 59.224 435.25 59.0469C434.385 58.8802 433.568 58.6198 432.797 58.2656V55.0938C433.62 55.4792 434.542 55.8125 435.562 56.0938C436.594 56.375 437.568 56.5156 438.484 56.5156C439.693 56.5156 440.562 56.3281 441.094 55.9531C441.625 55.5677 441.891 55.0573 441.891 54.4219C441.891 54.0469 441.781 53.7135 441.562 53.4219C441.354 53.1198 440.958 52.8125 440.375 52.5C439.802 52.1771 438.958 51.7917 437.844 51.3438C436.75 50.9062 435.828 50.4688 435.078 50.0312C434.328 49.5938 433.76 49.0677 433.375 48.4531C432.99 47.8281 432.797 47.0312 432.797 46.0625C432.797 44.5312 433.401 43.3698 434.609 42.5781C435.828 41.776 437.438 41.375 439.438 41.375C440.5 41.375 441.5 41.4844 442.438 41.7031C443.385 41.9115 444.312 42.2188 445.219 42.625L444.062 45.3906C443.281 45.0469 442.495 44.7656 441.703 44.5469C440.922 44.3177 440.125 44.2031 439.312 44.2031C438.365 44.2031 437.641 44.349 437.141 44.6406C436.651 44.9323 436.406 45.349 436.406 45.8906C436.406 46.2969 436.526 46.6406 436.766 46.9219C437.005 47.2031 437.417 47.4844 438 47.7656C438.594 48.0469 439.417 48.3958 440.469 48.8125C441.5 49.2083 442.391 49.625 443.141 50.0625C443.901 50.4896 444.484 51.0156 444.891 51.6406C445.297 52.2656 445.5 53.0729 445.5 54.0625ZM455.906 56.3438C456.385 56.3438 456.859 56.3021 457.328 56.2188C457.797 56.125 458.224 56.0156 458.609 55.8906V58.6719C458.203 58.849 457.677 59 457.031 59.125C456.385 59.25 455.714 59.3125 455.016 59.3125C454.036 59.3125 453.156 59.151 452.375 58.8281C451.594 58.4948 450.974 57.9271 450.516 57.125C450.057 56.3229 449.828 55.2135 449.828 53.7969V44.5H447.469V42.8594L450 41.5625L451.203 37.8594H453.516V41.7031H458.469V44.5H453.516V53.75C453.516 54.625 453.734 55.276 454.172 55.7031C454.609 56.1302 455.188 56.3438 455.906 56.3438ZM469.016 41.375C470.557 41.375 471.88 41.6927 472.984 42.3281C474.089 42.9635 474.938 43.8646 475.531 45.0312C476.125 46.1979 476.422 47.5938 476.422 49.2188V51.1875H464.875C464.917 52.8646 465.365 54.1562 466.219 55.0625C467.083 55.9688 468.292 56.4219 469.844 56.4219C470.948 56.4219 471.938 56.3177 472.812 56.1094C473.698 55.8906 474.609 55.5729 475.547 55.1562V58.1406C474.682 58.5469 473.802 58.8438 472.906 59.0312C472.01 59.2188 470.938 59.3125 469.688 59.3125C467.99 59.3125 466.495 58.9844 465.203 58.3281C463.922 57.6615 462.917 56.6719 462.188 55.3594C461.469 54.0469 461.109 52.4167 461.109 50.4688C461.109 48.5312 461.438 46.8854 462.094 45.5312C462.75 44.1771 463.672 43.1458 464.859 42.4375C466.047 41.7292 467.432 41.375 469.016 41.375ZM469.016 44.1406C467.859 44.1406 466.922 44.5156 466.203 45.2656C465.495 46.0156 465.078 47.1146 464.953 48.5625H472.828C472.818 47.6979 472.672 46.9323 472.391 46.2656C472.12 45.599 471.703 45.0781 471.141 44.7031C470.589 44.3281 469.88 44.1406 469.016 44.1406ZM486.375 59.3125C484.312 59.3125 482.656 58.5625 481.406 57.0625C480.167 55.5521 479.547 53.3281 479.547 50.3906C479.547 47.4219 480.177 45.1771 481.438 43.6562C482.708 42.1354 484.38 41.375 486.453 41.375C487.328 41.375 488.094 41.4948 488.75 41.7344C489.406 41.9635 489.969 42.276 490.438 42.6719C490.917 43.0677 491.323 43.5104 491.656 44H491.828C491.776 43.6771 491.714 43.2135 491.641 42.6094C491.578 41.9948 491.547 41.4271 491.547 40.9062V34.6875H495.234V59H492.359L491.703 56.6406H491.547C491.234 57.1406 490.839 57.5938 490.359 58C489.891 58.3958 489.328 58.7135 488.672 58.9531C488.026 59.1927 487.26 59.3125 486.375 59.3125ZM487.406 56.3281C488.979 56.3281 490.089 55.875 490.734 54.9688C491.38 54.0625 491.714 52.7031 491.734 50.8906V50.4062C491.734 48.4688 491.422 46.9844 490.797 45.9531C490.172 44.9115 489.031 44.3906 487.375 44.3906C486.052 44.3906 485.042 44.9271 484.344 46C483.656 47.0625 483.312 48.5469 483.312 50.4531C483.312 52.3594 483.656 53.8177 484.344 54.8281C485.042 55.8281 486.062 56.3281 487.406 56.3281ZM515.594 41.375C517.781 41.375 519.432 41.8594 520.547 42.8281C521.672 43.7969 522.234 45.3073 522.234 47.3594V59H519.625L518.922 56.5469H518.797C518.307 57.1719 517.802 57.6875 517.281 58.0938C516.76 58.5 516.156 58.8021 515.469 59C514.792 59.2083 513.964 59.3125 512.984 59.3125C511.953 59.3125 511.031 59.125 510.219 58.75C509.406 58.3646 508.766 57.7812 508.297 57C507.828 56.2188 507.594 55.2292 507.594 54.0312C507.594 52.25 508.255 50.9115 509.578 50.0156C510.911 49.1198 512.922 48.625 515.609 48.5312L518.609 48.4219V47.5156C518.609 46.3177 518.328 45.4635 517.766 44.9531C517.214 44.4427 516.432 44.1875 515.422 44.1875C514.557 44.1875 513.719 44.3125 512.906 44.5625C512.094 44.8125 511.302 45.1198 510.531 45.4844L509.344 42.8906C510.188 42.4427 511.146 42.0781 512.219 41.7969C513.302 41.5156 514.427 41.375 515.594 41.375ZM518.594 50.7344L516.359 50.8125C514.526 50.875 513.24 51.1875 512.5 51.75C511.76 52.3125 511.391 53.0833 511.391 54.0625C511.391 54.9167 511.646 55.5417 512.156 55.9375C512.667 56.3229 513.339 56.5156 514.172 56.5156C515.443 56.5156 516.495 56.1562 517.328 55.4375C518.172 54.7083 518.594 53.6406 518.594 52.2344V50.7344ZM536.391 41.375C538.339 41.375 539.854 41.8802 540.938 42.8906C542.031 43.8906 542.578 45.5 542.578 47.7188V59H538.906V48.4062C538.906 47.0625 538.63 46.0573 538.078 45.3906C537.526 44.7135 536.672 44.375 535.516 44.375C533.839 44.375 532.672 44.8906 532.016 45.9219C531.37 46.9531 531.047 48.4479 531.047 50.4062V59H527.375V41.7031H530.234L530.75 44.0469H530.953C531.328 43.4427 531.792 42.9479 532.344 42.5625C532.906 42.1667 533.531 41.8698 534.219 41.6719C534.917 41.474 535.641 41.375 536.391 41.375ZM553.531 59.3125C551.469 59.3125 549.812 58.5625 548.562 57.0625C547.323 55.5521 546.703 53.3281 546.703 50.3906C546.703 47.4219 547.333 45.1771 548.594 43.6562C549.865 42.1354 551.536 41.375 553.609 41.375C554.484 41.375 555.25 41.4948 555.906 41.7344C556.562 41.9635 557.125 42.276 557.594 42.6719C558.073 43.0677 558.479 43.5104 558.812 44H558.984C558.932 43.6771 558.87 43.2135 558.797 42.6094C558.734 41.9948 558.703 41.4271 558.703 40.9062V34.6875H562.391V59H559.516L558.859 56.6406H558.703C558.391 57.1406 557.995 57.5938 557.516 58C557.047 58.3958 556.484 58.7135 555.828 58.9531C555.182 59.1927 554.417 59.3125 553.531 59.3125ZM554.562 56.3281C556.135 56.3281 557.245 55.875 557.891 54.9688C558.536 54.0625 558.87 52.7031 558.891 50.8906V50.4062C558.891 48.4688 558.578 46.9844 557.953 45.9531C557.328 44.9115 556.188 44.3906 554.531 44.3906C553.208 44.3906 552.198 44.9271 551.5 46C550.812 47.0625 550.469 48.5469 550.469 50.4531C550.469 52.3594 550.812 53.8177 551.5 54.8281C552.198 55.8281 553.219 56.3281 554.562 56.3281ZM582.984 36.1562C585.932 36.1562 588.083 36.7604 589.438 37.9688C590.792 39.1771 591.469 40.8698 591.469 43.0469C591.469 44.0365 591.312 44.9792 591 45.875C590.698 46.7604 590.198 47.5469 589.5 48.2344C588.802 48.9115 587.88 49.4479 586.734 49.8438C585.599 50.2396 584.198 50.4375 582.531 50.4375H580.094V59H576.344V36.1562H582.984ZM582.734 39.2656H580.094V47.3125H582.141C583.318 47.3125 584.318 47.1771 585.141 46.9062C585.964 46.625 586.589 46.1823 587.016 45.5781C587.443 44.974 587.656 44.1771 587.656 43.1875C587.656 41.8646 587.255 40.8802 586.453 40.2344C585.661 39.5885 584.422 39.2656 582.734 39.2656ZM602.438 41.375C604.625 41.375 606.276 41.8594 607.391 42.8281C608.516 43.7969 609.078 45.3073 609.078 47.3594V59H606.469L605.766 56.5469H605.641C605.151 57.1719 604.646 57.6875 604.125 58.0938C603.604 58.5 603 58.8021 602.312 59C601.635 59.2083 600.807 59.3125 599.828 59.3125C598.797 59.3125 597.875 59.125 597.062 58.75C596.25 58.3646 595.609 57.7812 595.141 57C594.672 56.2188 594.438 55.2292 594.438 54.0312C594.438 52.25 595.099 50.9115 596.422 50.0156C597.755 49.1198 599.766 48.625 602.453 48.5312L605.453 48.4219V47.5156C605.453 46.3177 605.172 45.4635 604.609 44.9531C604.057 44.4427 603.276 44.1875 602.266 44.1875C601.401 44.1875 600.562 44.3125 599.75 44.5625C598.938 44.8125 598.146 45.1198 597.375 45.4844L596.188 42.8906C597.031 42.4427 597.99 42.0781 599.062 41.7969C600.146 41.5156 601.271 41.375 602.438 41.375ZM605.438 50.7344L603.203 50.8125C601.37 50.875 600.083 51.1875 599.344 51.75C598.604 52.3125 598.234 53.0833 598.234 54.0625C598.234 54.9167 598.49 55.5417 599 55.9375C599.51 56.3229 600.182 56.5156 601.016 56.5156C602.286 56.5156 603.339 56.1562 604.172 55.4375C605.016 54.7083 605.438 53.6406 605.438 52.2344V50.7344ZM622.984 41.375C623.276 41.375 623.594 41.3906 623.938 41.4219C624.281 41.4531 624.578 41.4948 624.828 41.5469L624.484 44.9844C624.266 44.9219 623.995 44.875 623.672 44.8438C623.359 44.8125 623.078 44.7969 622.828 44.7969C622.172 44.7969 621.547 44.9062 620.953 45.125C620.359 45.3333 619.833 45.6562 619.375 46.0938C618.917 46.5208 618.557 47.0573 618.297 47.7031C618.036 48.349 617.906 49.099 617.906 49.9531V59H614.219V41.7031H617.094L617.594 44.75H617.766C618.109 44.1354 618.536 43.5729 619.047 43.0625C619.557 42.5521 620.141 42.1458 620.797 41.8438C621.464 41.5312 622.193 41.375 622.984 41.375ZM634.469 56.3438C634.948 56.3438 635.422 56.3021 635.891 56.2188C636.359 56.125 636.786 56.0156 637.172 55.8906V58.6719C636.766 58.849 636.24 59 635.594 59.125C634.948 59.25 634.276 59.3125 633.578 59.3125C632.599 59.3125 631.719 59.151 630.938 58.8281C630.156 58.4948 629.536 57.9271 629.078 57.125C628.62 56.3229 628.391 55.2135 628.391 53.7969V44.5H626.031V42.8594L628.562 41.5625L629.766 37.8594H632.078V41.7031H637.031V44.5H632.078V53.75C632.078 54.625 632.297 55.276 632.734 55.7031C633.172 56.1302 633.75 56.3438 634.469 56.3438ZM649.703 41.375C651.651 41.375 653.167 41.8802 654.25 42.8906C655.344 43.8906 655.891 45.5 655.891 47.7188V59H652.219V48.4062C652.219 47.0625 651.943 46.0573 651.391 45.3906C650.839 44.7135 649.984 44.375 648.828 44.375C647.151 44.375 645.984 44.8906 645.328 45.9219C644.682 46.9531 644.359 48.4479 644.359 50.4062V59H640.688V41.7031H643.547L644.062 44.0469H644.266C644.641 43.4427 645.104 42.9479 645.656 42.5625C646.219 42.1667 646.844 41.8698 647.531 41.6719C648.229 41.474 648.953 41.375 649.703 41.375ZM667.922 41.375C669.464 41.375 670.786 41.6927 671.891 42.3281C672.995 42.9635 673.844 43.8646 674.438 45.0312C675.031 46.1979 675.328 47.5938 675.328 49.2188V51.1875H663.781C663.823 52.8646 664.271 54.1562 665.125 55.0625C665.99 55.9688 667.198 56.4219 668.75 56.4219C669.854 56.4219 670.844 56.3177 671.719 56.1094C672.604 55.8906 673.516 55.5729 674.453 55.1562V58.1406C673.589 58.5469 672.708 58.8438 671.812 59.0312C670.917 59.2188 669.844 59.3125 668.594 59.3125C666.896 59.3125 665.401 58.9844 664.109 58.3281C662.828 57.6615 661.823 56.6719 661.094 55.3594C660.375 54.0469 660.016 52.4167 660.016 50.4688C660.016 48.5312 660.344 46.8854 661 45.5312C661.656 44.1771 662.578 43.1458 663.766 42.4375C664.953 41.7292 666.339 41.375 667.922 41.375ZM667.922 44.1406C666.766 44.1406 665.828 44.5156 665.109 45.2656C664.401 46.0156 663.984 47.1146 663.859 48.5625H671.734C671.724 47.6979 671.578 46.9323 671.297 46.2656C671.026 45.599 670.609 45.0781 670.047 44.7031C669.495 44.3281 668.786 44.1406 667.922 44.1406ZM688.234 41.375C688.526 41.375 688.844 41.3906 689.188 41.4219C689.531 41.4531 689.828 41.4948 690.078 41.5469L689.734 44.9844C689.516 44.9219 689.245 44.875 688.922 44.8438C688.609 44.8125 688.328 44.7969 688.078 44.7969C687.422 44.7969 686.797 44.9062 686.203 45.125C685.609 45.3333 685.083 45.6562 684.625 46.0938C684.167 46.5208 683.807 47.0573 683.547 47.7031C683.286 48.349 683.156 49.099 683.156 49.9531V59H679.469V41.7031H682.344L682.844 44.75H683.016C683.359 44.1354 683.786 43.5729 684.297 43.0625C684.807 42.5521 685.391 42.1458 686.047 41.8438C686.714 41.5312 687.443 41.375 688.234 41.375ZM700.172 41.375C701.714 41.375 703.036 41.6927 704.141 42.3281C705.245 42.9635 706.094 43.8646 706.688 45.0312C707.281 46.1979 707.578 47.5938 707.578 49.2188V51.1875H696.031C696.073 52.8646 696.521 54.1562 697.375 55.0625C698.24 55.9688 699.448 56.4219 701 56.4219C702.104 56.4219 703.094 56.3177 703.969 56.1094C704.854 55.8906 705.766 55.5729 706.703 55.1562V58.1406C705.839 58.5469 704.958 58.8438 704.062 59.0312C703.167 59.2188 702.094 59.3125 700.844 59.3125C699.146 59.3125 697.651 58.9844 696.359 58.3281C695.078 57.6615 694.073 56.6719 693.344 55.3594C692.625 54.0469 692.266 52.4167 692.266 50.4688C692.266 48.5312 692.594 46.8854 693.25 45.5312C693.906 44.1771 694.828 43.1458 696.016 42.4375C697.203 41.7292 698.589 41.375 700.172 41.375ZM700.172 44.1406C699.016 44.1406 698.078 44.5156 697.359 45.2656C696.651 46.0156 696.234 47.1146 696.109 48.5625H703.984C703.974 47.6979 703.828 46.9323 703.547 46.2656C703.276 45.599 702.859 45.0781 702.297 44.7031C701.745 44.3281 701.036 44.1406 700.172 44.1406ZM717.531 59.3125C715.469 59.3125 713.812 58.5625 712.562 57.0625C711.323 55.5521 710.703 53.3281 710.703 50.3906C710.703 47.4219 711.333 45.1771 712.594 43.6562C713.865 42.1354 715.536 41.375 717.609 41.375C718.484 41.375 719.25 41.4948 719.906 41.7344C720.562 41.9635 721.125 42.276 721.594 42.6719C722.073 43.0677 722.479 43.5104 722.812 44H722.984C722.932 43.6771 722.87 43.2135 722.797 42.6094C722.734 41.9948 722.703 41.4271 722.703 40.9062V34.6875H726.391V59H723.516L722.859 56.6406H722.703C722.391 57.1406 721.995 57.5938 721.516 58C721.047 58.3958 720.484 58.7135 719.828 58.9531C719.182 59.1927 718.417 59.3125 717.531 59.3125ZM718.562 56.3281C720.135 56.3281 721.245 55.875 721.891 54.9688C722.536 54.0625 722.87 52.7031 722.891 50.8906V50.4062C722.891 48.4688 722.578 46.9844 721.953 45.9531C721.328 44.9115 720.188 44.3906 718.531 44.3906C717.208 44.3906 716.198 44.9271 715.5 46C714.812 47.0625 714.469 48.5469 714.469 50.4531C714.469 52.3594 714.812 53.8177 715.5 54.8281C716.198 55.8281 717.219 56.3281 718.562 56.3281ZM754.109 58.9844L751.922 50.9375C751.818 50.5417 751.693 50.0625 751.547 49.5C751.401 48.9375 751.255 48.3594 751.109 47.7656C750.964 47.1615 750.828 46.6042 750.703 46.0938C750.589 45.5833 750.5 45.1875 750.438 44.9062H750.312C750.26 45.1875 750.177 45.5833 750.062 46.0938C749.948 46.6042 749.818 47.1615 749.672 47.7656C749.526 48.3698 749.38 48.9583 749.234 49.5312C749.099 50.1042 748.974 50.5938 748.859 51L746.562 58.9844H742.531L737.688 41.6875H741.406L743.656 50.2812C743.802 50.8646 743.943 51.4948 744.078 52.1719C744.224 52.849 744.349 53.4948 744.453 54.1094C744.557 54.724 744.635 55.2292 744.688 55.625H744.812C744.854 55.3438 744.911 54.9896 744.984 54.5625C745.057 54.125 745.141 53.6719 745.234 53.2031C745.328 52.724 745.422 52.276 745.516 51.8594C745.609 51.4323 745.698 51.0885 745.781 50.8281L748.438 41.6875H752.453L755 50.8281C755.115 51.224 755.24 51.724 755.375 52.3281C755.51 52.9219 755.63 53.5208 755.734 54.125C755.849 54.7188 755.922 55.2135 755.953 55.6094H756.078C756.12 55.2552 756.193 54.776 756.297 54.1719C756.411 53.5573 756.542 52.9062 756.688 52.2188C756.833 51.5208 756.984 50.875 757.141 50.2812L759.438 41.6875H763.094L758.219 58.9844H754.109ZM769.734 41.7031V59H766.062V41.7031H769.734ZM767.922 35.0781C768.484 35.0781 768.969 35.2292 769.375 35.5312C769.792 35.8333 770 36.3542 770 37.0938C770 37.8229 769.792 38.3438 769.375 38.6562C768.969 38.9583 768.484 39.1094 767.922 39.1094C767.339 39.1094 766.844 38.9583 766.438 38.6562C766.042 38.3438 765.844 37.8229 765.844 37.0938C765.844 36.3542 766.042 35.8333 766.438 35.5312C766.844 35.2292 767.339 35.0781 767.922 35.0781ZM781.438 56.3438C781.917 56.3438 782.391 56.3021 782.859 56.2188C783.328 56.125 783.755 56.0156 784.141 55.8906V58.6719C783.734 58.849 783.208 59 782.562 59.125C781.917 59.25 781.245 59.3125 780.547 59.3125C779.568 59.3125 778.688 59.151 777.906 58.8281C777.125 58.4948 776.505 57.9271 776.047 57.125C775.589 56.3229 775.359 55.2135 775.359 53.7969V44.5H773V42.8594L775.531 41.5625L776.734 37.8594H779.047V41.7031H784V44.5H779.047V53.75C779.047 54.625 779.266 55.276 779.703 55.7031C780.141 56.1302 780.719 56.3438 781.438 56.3438ZM791.328 34.6875V40.7969C791.328 41.4323 791.307 42.0521 791.266 42.6562C791.234 43.2604 791.198 43.7292 791.156 44.0625H791.359C791.724 43.4583 792.172 42.9635 792.703 42.5781C793.234 42.1823 793.828 41.8854 794.484 41.6875C795.151 41.4896 795.859 41.3906 796.609 41.3906C797.932 41.3906 799.057 41.6146 799.984 42.0625C800.911 42.5 801.62 43.1823 802.109 44.1094C802.609 45.0365 802.859 46.2396 802.859 47.7188V59H799.188V48.4062C799.188 47.0625 798.911 46.0573 798.359 45.3906C797.807 44.7135 796.953 44.375 795.797 44.375C794.682 44.375 793.797 44.6094 793.141 45.0781C792.495 45.5365 792.031 46.2188 791.75 47.125C791.469 48.0208 791.328 49.1146 791.328 50.4062V59H787.656V34.6875H791.328ZM807.469 57.0625C807.469 56.2083 807.688 55.6094 808.125 55.2656C808.573 54.9115 809.115 54.7344 809.75 54.7344C810.385 54.7344 810.927 54.9115 811.375 55.2656C811.833 55.6094 812.062 56.2083 812.062 57.0625C812.062 57.8958 811.833 58.5 811.375 58.875C810.927 59.2396 810.385 59.4219 809.75 59.4219C809.115 59.4219 808.573 59.2396 808.125 58.875C807.688 58.5 807.469 57.8958 807.469 57.0625ZM807.469 43.6875C807.469 42.8229 807.688 42.2135 808.125 41.8594C808.573 41.5052 809.115 41.3281 809.75 41.3281C810.385 41.3281 810.927 41.5052 811.375 41.8594C811.833 42.2135 812.062 42.8229 812.062 43.6875C812.062 44.5104 811.833 45.1094 811.375 45.4844C810.927 45.849 810.385 46.0312 809.75 46.0312C809.115 46.0312 808.573 45.849 808.125 45.4844C807.688 45.1094 807.469 44.5104 807.469 43.6875Z" fill="black"/>
<g opacity="0.2">
<mask id="mask0_2_24" style="mask-type:luminance" maskUnits="userSpaceOnUse" x="49" y="110" width="180" height="47">
<path d="M228.178 110H49.1453V156.602H228.178V110Z" fill="white"/>
</mask>
<g mask="url(#mask0_2_24)">
<path d="M126.452 141.072L124.523 147.022C124.497 147.118 124.44 147.203 124.359 147.262C124.279 147.321 124.18 147.35 124.081 147.346H119.397C119.117 147.346 119.034 147.184 119.078 146.951L127.123 123.731C127.391 122.941 127.524 122.111 127.517 121.277C127.514 121.208 127.537 121.141 127.582 121.089C127.627 121.036 127.69 121.003 127.758 120.996H134.193C134.395 120.996 134.474 121.036 134.517 121.237L143.647 146.982C143.726 147.184 143.687 147.346 143.446 147.346H138.226C138.13 147.362 138.032 147.342 137.949 147.291C137.867 147.239 137.807 147.158 137.78 147.065L135.728 141.072H126.452ZM134.256 136.041C133.467 133.386 131.842 128.521 131.08 125.664H131.041C130.394 128.359 128.946 132.766 127.884 136.041H134.256Z" fill="black"/>
<path d="M144.29 137.529C144.29 131.776 148.595 126.95 155.957 126.95C156.277 126.95 156.679 126.99 157.283 127.029V119.107C157.279 119.069 157.283 119.03 157.296 118.994C157.308 118.958 157.329 118.926 157.356 118.899C157.382 118.872 157.415 118.851 157.451 118.839C157.487 118.826 157.525 118.822 157.563 118.826H162.633C162.835 118.826 162.874 118.905 162.874 119.067V142.839C162.864 143.821 162.918 144.801 163.036 145.775C163.036 145.976 162.997 146.059 162.756 146.138C160.249 147.203 157.553 147.751 154.829 147.748C148.875 147.748 144.29 144.37 144.29 137.529ZM157.283 131.819C156.804 131.662 156.3 131.594 155.796 131.618C152.698 131.618 150.043 133.508 150.043 137.248C150.043 141.23 152.335 142.962 155.393 142.962C156.032 142.989 156.671 142.907 157.283 142.721V131.819Z" fill="black"/>
<path d="M185.913 137.249C185.913 143.561 181.809 147.748 176.017 147.748C169.136 147.748 166.082 142.559 166.082 137.371C166.082 131.658 169.901 126.95 176.096 126.95C182.575 126.95 185.913 131.819 185.913 137.249ZM171.752 137.288C171.752 140.839 173.401 143.08 176.092 143.08C178.428 143.08 180.196 141.072 180.196 137.371C180.196 134.214 178.909 131.618 175.855 131.618C173.523 131.618 171.752 133.709 171.752 137.288Z" fill="black"/>
<path d="M194.368 118.826C194.688 118.826 194.763 118.866 194.763 119.146V127.392C195.864 127.097 197 126.949 198.14 126.95C204.059 126.95 207.795 131.133 207.795 136.523C207.795 144.047 201.841 147.748 195.729 147.748C193.59 147.763 191.461 147.45 189.417 146.821C189.345 146.781 189.286 146.725 189.244 146.655C189.202 146.586 189.178 146.507 189.176 146.426V119.107C189.176 118.905 189.255 118.826 189.456 118.826H194.368ZM197.13 131.697C196.329 131.687 195.531 131.796 194.763 132.021V142.942C195.251 143.053 195.75 143.106 196.25 143.1C199.308 143.1 202.082 141.249 202.082 137.067C202.09 133.386 199.959 131.697 197.142 131.697H197.13Z" fill="black"/>
<path d="M215.667 138.819C215.868 141.111 217.478 143.001 221.419 143.001C223.115 143.034 224.799 142.718 226.367 142.074C226.49 141.995 226.608 142.035 226.608 142.275V146.099C226.608 146.379 226.529 146.493 226.328 146.58C224.718 147.346 222.95 147.764 220.173 147.764C212.609 147.764 209.957 142.575 209.957 137.588C209.957 132.036 213.374 126.966 219.691 126.966C225.764 126.966 228.178 131.673 228.178 135.647C228.207 136.549 228.139 137.453 227.977 138.341C227.971 138.425 227.936 138.505 227.876 138.564C227.817 138.624 227.737 138.659 227.654 138.665C226.277 138.795 224.893 138.849 223.511 138.827L215.667 138.819ZM220.899 134.917C221.569 134.941 222.241 134.913 222.907 134.834V134.554C222.895 134.119 222.797 133.691 222.618 133.295C222.44 132.899 222.184 132.543 221.866 132.247C221.548 131.951 221.174 131.721 220.766 131.571C220.358 131.421 219.924 131.354 219.49 131.373C216.957 131.373 215.868 133.267 215.627 134.925L220.899 134.917Z" fill="black"/>
<path d="M82.34 110H101.804V156.602L82.34 110Z" fill="black"/>
<path d="M68.6249 110H49.1453V156.602L68.6249 110Z" fill="black"/>
<path d="M75.4825 127.175L87.8836 156.602H79.7557L76.0467 147.231H66.9718L75.4825 127.175Z" fill="black"/>
</g>
</g>
<g opacity="0.2">
<path d="M348.142 114.874H334.97C334.069 114.874 333.302 115.529 333.162 116.419L327.834 150.196C327.728 150.862 328.245 151.463 328.921 151.463H335.209C336.111 151.463 336.877 150.808 337.018 149.916L338.454 140.806C338.593 139.914 339.362 139.26 340.261 139.26H344.431C353.108 139.26 358.115 135.061 359.423 126.74C360.013 123.1 359.448 120.24 357.744 118.237C355.872 116.037 352.551 114.874 348.142 114.874ZM349.662 127.21C348.942 131.937 345.33 131.937 341.839 131.937H339.851L341.245 123.11C341.328 122.576 341.79 122.183 342.33 122.183H343.241C345.619 122.183 347.863 122.183 349.023 123.539C349.714 124.348 349.926 125.55 349.662 127.21Z" fill="black"/>
<path d="M387.516 127.058H381.208C380.671 127.058 380.207 127.451 380.124 127.985L379.845 129.749L379.404 129.109C378.038 127.127 374.993 126.465 371.954 126.465C364.983 126.465 359.03 131.744 357.871 139.15C357.268 142.844 358.125 146.376 360.22 148.839C362.143 151.104 364.893 152.048 368.166 152.048C373.782 152.048 376.896 148.437 376.896 148.437L376.615 150.19C376.509 150.86 377.025 151.461 377.697 151.461H383.379C384.282 151.461 385.045 150.806 385.188 149.914L388.596 128.325C388.704 127.661 388.19 127.058 387.516 127.058ZM378.724 139.335C378.115 142.938 375.255 145.357 371.607 145.357C369.776 145.357 368.312 144.77 367.372 143.656C366.44 142.551 366.085 140.977 366.382 139.225C366.95 135.652 369.858 133.154 373.45 133.154C375.242 133.154 376.698 133.749 377.657 134.872C378.618 136.006 378.999 137.589 378.724 139.335Z" fill="black"/>
<path d="M421.11 127.058H414.771C414.167 127.058 413.598 127.358 413.256 127.861L404.513 140.739L400.808 128.364C400.575 127.59 399.86 127.058 399.051 127.058H392.823C392.065 127.058 391.54 127.798 391.781 128.51L398.762 148.999L392.199 158.265C391.682 158.995 392.202 159.999 393.094 159.999H399.425C400.026 159.999 400.588 159.706 400.929 159.213L422.011 128.782C422.516 128.054 421.998 127.058 421.11 127.058Z" fill="black"/>
<path d="M442.096 114.874H428.922C428.023 114.874 427.256 115.529 427.115 116.419L421.788 150.195C421.682 150.862 422.198 151.463 422.87 151.463H429.631C430.259 151.463 430.796 151.004 430.894 150.38L432.406 140.806C432.545 139.914 433.314 139.259 434.213 139.259H438.381C447.059 139.259 452.065 135.06 453.375 126.74C453.966 123.1 453.398 120.24 451.693 118.237C449.823 116.037 446.505 114.874 442.096 114.874ZM443.616 127.21C442.897 131.937 439.286 131.937 435.792 131.937H433.806L435.203 123.11C435.286 122.576 435.744 122.183 436.285 122.183H437.196C439.573 122.183 441.819 122.183 442.978 123.539C443.669 124.348 443.879 125.55 443.616 127.21Z" fill="black"/>
<path d="M481.468 127.058H475.164C474.623 127.058 474.162 127.451 474.081 127.985L473.802 129.749L473.359 129.109C471.994 127.127 468.951 126.465 465.911 126.465C458.941 126.465 452.99 131.744 451.83 139.15C451.229 142.844 452.082 146.376 454.178 148.839C456.104 151.104 458.85 152.048 462.123 152.048C467.739 152.048 470.853 148.437 470.853 148.437L470.572 150.19C470.466 150.86 470.982 151.461 471.659 151.461H477.338C478.238 151.461 479.005 150.806 479.145 149.914L482.556 128.325C482.66 127.661 482.144 127.058 481.468 127.058ZM472.675 139.335C472.071 142.938 469.207 145.357 465.559 145.357C463.731 145.357 462.263 144.77 461.323 143.656C460.392 142.551 460.041 140.977 460.334 139.225C460.906 135.652 463.81 133.154 467.402 133.154C469.193 133.154 470.649 133.749 471.608 134.872C472.573 136.006 472.955 137.589 472.675 139.335Z" fill="black"/>
<path d="M488.904 115.8L483.498 150.195C483.392 150.862 483.908 151.463 484.58 151.463H490.015C490.919 151.463 491.685 150.808 491.824 149.916L497.155 116.142C497.261 115.475 496.745 114.872 496.073 114.872H489.987C489.449 114.874 488.987 115.267 488.904 115.8Z" fill="black"/>
</g>
<g opacity="0.2">
<path d="M819.887 114.971C820.323 116.626 821.195 118.133 822.411 119.337C823.627 120.541 825.144 121.398 826.803 121.818H837.602L838.155 122.035V149.284H844.893V122.074L845.506 121.857H856.314C857.968 121.426 859.478 120.566 860.693 119.363C861.907 118.161 862.783 116.659 863.23 115.01V114.941H819.887V114.971ZM1055.63 114.931H1048.91V149.363H1079.68C1081.14 148.799 1082.43 147.886 1083.46 146.704C1084.48 145.523 1085.2 144.108 1085.55 142.585H1055.61L1055.63 114.931ZM1003.93 121.709C1007.51 120.721 1010.51 117.935 1011.23 114.911L973.589 114.971V135.274H1004.38V142.417H980.218C978.376 142.895 976.656 143.758 975.173 144.951C973.689 146.143 972.476 147.637 971.613 149.333H1011.02V128.516H980.238V121.709H1003.93ZM1118.71 149.343H1125.38V135.491H1149.67V149.343H1156.34V128.575L1118.71 128.536V149.343ZM904.212 121.788H929.9C931.583 121.383 933.122 120.524 934.35 119.305C935.579 118.085 936.449 116.552 936.865 114.872H897.247C897.668 116.55 898.539 118.081 899.766 119.3C900.994 120.519 902.531 121.379 904.212 121.788ZM904.212 135.393H929.9C931.582 134.986 933.12 134.126 934.348 132.907C935.576 131.688 936.446 130.156 936.865 128.477H897.247C897.67 130.154 898.541 131.684 899.769 132.902C900.996 134.121 902.532 134.982 904.212 135.393ZM904.212 149.363H929.9C931.582 148.956 933.12 148.096 934.348 146.877C935.576 145.658 936.446 144.126 936.865 142.447H897.247C897.669 144.124 898.54 145.655 899.768 146.874C900.995 148.092 902.532 148.953 904.212 149.363ZM1124.64 121.808H1150.33C1152.02 121.403 1153.55 120.545 1154.79 119.325C1156.02 118.106 1156.89 116.572 1157.31 114.892H1117.68C1118.1 116.571 1118.97 118.103 1120.2 119.322C1121.42 120.541 1122.96 121.401 1124.64 121.808Z" fill="black"/>
</g>
<g opacity="0.2">
<mask id="mask1_2_24" style="mask-type:luminance" maskUnits="userSpaceOnUse" x="584" y="114" width="149" height="46">
<path d="M732.82 114.872H584.085V159.694H732.82V114.872Z" fill="white"/>
</mask>
<g mask="url(#mask1_2_24)">
<path fill-rule="evenodd" clip-rule="evenodd" d="M676.357 149.924C667.714 156.295 655.186 159.694 644.4 159.694C629.276 159.694 615.66 154.1 605.36 144.796C604.55 144.065 605.275 143.068 606.247 143.637C617.363 150.105 631.108 153.996 645.306 153.996C654.882 153.996 665.416 152.015 675.101 147.904C676.564 147.283 677.788 148.862 676.357 149.924Z" fill="black"/>
<path fill-rule="evenodd" clip-rule="evenodd" d="M679.95 145.813C678.85 144.401 672.647 145.146 669.863 145.476C669.015 145.58 668.886 144.842 669.65 144.311C674.59 140.834 682.695 141.838 683.641 143.003C684.586 144.175 683.395 152.3 678.753 156.178C678.041 156.774 677.361 156.457 677.678 155.667C678.72 153.064 681.058 147.231 679.95 145.813Z" fill="black"/>
<path fill-rule="evenodd" clip-rule="evenodd" d="M670.058 119.767V116.387C670.058 115.875 670.446 115.532 670.912 115.532H686.043C686.528 115.532 686.917 115.882 686.917 116.387V119.281C686.91 119.767 686.502 120.401 685.777 121.405L677.937 132.599C680.85 132.528 683.926 132.961 686.567 134.45C687.163 134.787 687.325 135.279 687.37 135.765V139.371C687.37 139.863 686.826 140.439 686.256 140.141C681.601 137.7 675.418 137.435 670.271 140.167C669.747 140.452 669.196 139.882 669.196 139.39V135.965C669.196 135.415 669.203 134.476 669.753 133.641L678.837 120.615H670.932C670.446 120.615 670.058 120.272 670.058 119.767Z" fill="black"/>
<path fill-rule="evenodd" clip-rule="evenodd" d="M614.864 140.853H610.261C609.82 140.821 609.471 140.491 609.438 140.07V116.445C609.438 115.973 609.833 115.597 610.325 115.597H614.618C615.065 115.616 615.421 115.96 615.453 116.387V119.475H615.537C616.657 116.49 618.761 115.099 621.597 115.099C624.478 115.099 626.278 116.49 627.573 119.475C628.687 116.49 631.218 115.099 633.931 115.099C635.86 115.099 637.971 115.895 639.259 117.682C640.716 119.669 640.418 122.557 640.418 125.088L640.412 139.999C640.412 140.471 640.017 140.853 639.525 140.853H634.928C634.468 140.821 634.099 140.452 634.099 139.999V127.477C634.099 126.48 634.19 123.994 633.97 123.049C633.626 121.463 632.597 121.016 631.263 121.016C630.15 121.016 628.984 121.761 628.512 122.952C628.039 124.143 628.084 126.137 628.084 127.477V139.999C628.084 140.471 627.689 140.853 627.198 140.853H622.601C622.135 140.821 621.772 140.452 621.772 139.999L621.765 127.477C621.765 124.842 622.199 120.964 618.93 120.964C615.621 120.964 615.751 124.745 615.751 127.477V139.999C615.751 140.471 615.356 140.853 614.864 140.853Z" fill="black"/>
<path fill-rule="evenodd" clip-rule="evenodd" d="M699.943 115.099C706.774 115.099 710.47 120.964 710.47 128.423C710.47 135.629 706.385 141.346 699.943 141.346C693.236 141.346 689.584 135.48 689.584 128.17C689.584 120.815 693.281 115.099 699.943 115.099ZM699.982 119.922C696.589 119.922 696.376 124.545 696.376 127.426C696.376 130.313 696.33 136.477 699.943 136.477C703.511 136.477 703.679 131.504 703.679 128.474C703.679 126.48 703.595 124.098 702.993 122.207C702.475 120.563 701.445 119.922 699.982 119.922Z" fill="black"/>
<path fill-rule="evenodd" clip-rule="evenodd" d="M719.328 140.853H714.744C714.284 140.821 713.915 140.452 713.915 139.999L713.908 116.367C713.947 115.934 714.329 115.597 714.796 115.597H719.062C719.464 115.616 719.794 115.888 719.884 116.257V119.87H719.968C721.257 116.639 723.063 115.099 726.242 115.099C728.307 115.099 730.321 115.843 731.616 117.882C732.82 119.773 732.82 122.952 732.82 125.237V140.109C732.768 140.523 732.386 140.853 731.933 140.853H727.317C726.896 140.821 726.546 140.51 726.501 140.109V127.277C726.501 124.693 726.799 120.912 723.62 120.912C722.5 120.912 721.471 121.663 720.959 122.803C720.311 124.247 720.227 125.684 720.227 127.277V139.999C720.221 140.471 719.82 140.853 719.328 140.853Z" fill="black"/>
<path fill-rule="evenodd" clip-rule="evenodd" d="M657.996 129.569C657.996 131.362 658.041 132.858 657.135 134.45C656.403 135.745 655.238 136.542 653.949 136.542C652.182 136.542 651.146 135.195 651.146 133.207C651.146 129.284 654.662 128.572 657.996 128.572V129.569ZM662.638 140.789C662.334 141.061 661.893 141.08 661.55 140.899C660.022 139.63 659.744 139.041 658.909 137.83C656.384 140.407 654.59 141.177 651.321 141.177C647.443 141.177 644.432 138.788 644.432 134.004C644.432 130.268 646.452 127.724 649.34 126.48C651.839 125.38 655.329 125.186 657.996 124.881V124.286C657.996 123.191 658.08 121.897 657.433 120.951C656.876 120.103 655.801 119.754 654.849 119.754C653.095 119.754 651.535 120.654 651.153 122.518C651.075 122.933 650.771 123.34 650.35 123.36L645.889 122.881C645.514 122.797 645.093 122.492 645.203 121.916C646.226 116.503 651.12 114.872 655.497 114.872C657.737 114.872 660.663 115.468 662.431 117.164C664.671 119.255 664.457 122.046 664.457 125.082V132.256C664.457 134.412 665.351 135.357 666.192 136.522C666.484 136.937 666.548 137.435 666.173 137.746C665.234 138.529 663.564 139.986 662.645 140.802L662.638 140.789Z" fill="black"/>
<path fill-rule="evenodd" clip-rule="evenodd" d="M597.649 129.569C597.649 131.362 597.694 132.858 596.788 134.451C596.056 135.745 594.897 136.542 593.602 136.542C591.835 136.542 590.805 135.195 590.805 133.208C590.805 129.284 594.321 128.572 597.649 128.572V129.569ZM602.291 140.789C601.987 141.061 601.546 141.08 601.203 140.899C599.675 139.63 599.403 139.041 598.562 137.83C596.037 140.407 594.25 141.177 590.974 141.177C587.102 141.177 584.085 138.788 584.085 134.004C584.085 130.268 586.111 127.724 588.993 126.481C591.492 125.38 594.981 125.186 597.649 124.882V124.286C597.649 123.192 597.733 121.897 597.092 120.952C596.529 120.103 595.454 119.754 594.509 119.754C592.754 119.754 591.187 120.654 590.805 122.518C590.728 122.933 590.423 123.341 590.009 123.36L585.542 122.881C585.166 122.797 584.752 122.492 584.855 121.916C585.885 116.504 590.773 114.872 595.15 114.872C597.39 114.872 600.316 115.468 602.084 117.164C604.324 119.255 604.11 122.046 604.11 125.082V132.256C604.11 134.412 605.004 135.357 605.845 136.522C606.143 136.937 606.208 137.435 605.832 137.746C604.893 138.529 603.223 139.986 602.304 140.802L602.291 140.789Z" fill="black"/>
</g>
</g>
</svg>
