<svg width="1440" height="644" viewBox="0 0 1440 644" fill="none" xmlns="http://www.w3.org/2000/svg">
<path d="M192 0L1440 183.5V645H-0.5V188.5L192 0Z" fill="black"/>
<path d="M175.836 184.838H184.46V189H170.587V162.829H175.836V184.838ZM197.02 189.337C195.02 189.337 193.22 188.9 191.62 188.025C190.021 187.125 188.758 185.863 187.834 184.238C186.934 182.614 186.484 180.739 186.484 178.614C186.484 176.49 186.946 174.615 187.871 172.99C188.821 171.365 190.108 170.116 191.733 169.241C193.358 168.341 195.17 167.891 197.17 167.891C199.169 167.891 200.981 168.341 202.606 169.241C204.231 170.116 205.506 171.365 206.43 172.99C207.38 174.615 207.855 176.49 207.855 178.614C207.855 180.739 207.368 182.614 206.393 184.238C205.443 185.863 204.143 187.125 202.494 188.025C200.869 188.9 199.044 189.337 197.02 189.337ZM197.02 184.763C197.969 184.763 198.857 184.538 199.682 184.088C200.531 183.613 201.206 182.914 201.706 181.989C202.206 181.064 202.456 179.939 202.456 178.614C202.456 176.64 201.931 175.127 200.881 174.077C199.857 173.003 198.594 172.465 197.095 172.465C195.595 172.465 194.333 173.003 193.308 174.077C192.308 175.127 191.808 176.64 191.808 178.614C191.808 180.589 192.295 182.114 193.27 183.188C194.27 184.238 195.52 184.763 197.02 184.763ZM219.842 167.891C221.392 167.891 222.754 168.203 223.929 168.828C225.103 169.428 226.028 170.216 226.703 171.19V168.228H231.99V189.15C231.99 191.075 231.602 192.787 230.827 194.287C230.053 195.811 228.89 197.011 227.341 197.886C225.791 198.786 223.916 199.236 221.717 199.236C218.767 199.236 216.342 198.548 214.443 197.174C212.568 195.799 211.506 193.924 211.256 191.55H216.467C216.742 192.499 217.33 193.249 218.23 193.799C219.154 194.374 220.267 194.662 221.567 194.662C223.091 194.662 224.329 194.199 225.278 193.274C226.228 192.374 226.703 191 226.703 189.15V185.926C226.028 186.9 225.091 187.713 223.891 188.363C222.716 189.012 221.367 189.337 219.842 189.337C218.092 189.337 216.492 188.888 215.043 187.988C213.593 187.088 212.443 185.826 211.593 184.201C210.768 182.551 210.356 180.664 210.356 178.539C210.356 176.44 210.768 174.577 211.593 172.953C212.443 171.328 213.58 170.078 215.005 169.203C216.455 168.328 218.067 167.891 219.842 167.891ZM226.703 178.614C226.703 177.339 226.453 176.252 225.953 175.352C225.453 174.427 224.779 173.728 223.929 173.253C223.079 172.753 222.166 172.503 221.192 172.503C220.217 172.503 219.317 172.74 218.492 173.215C217.667 173.69 216.992 174.39 216.467 175.315C215.967 176.215 215.718 177.289 215.718 178.539C215.718 179.789 215.967 180.889 216.467 181.839C216.992 182.764 217.667 183.476 218.492 183.976C219.342 184.476 220.242 184.726 221.192 184.726C222.166 184.726 223.079 184.488 223.929 184.013C224.779 183.513 225.453 182.814 225.953 181.914C226.453 180.989 226.703 179.889 226.703 178.614ZM246.34 189.337C244.34 189.337 242.541 188.9 240.941 188.025C239.341 187.125 238.079 185.863 237.154 184.238C236.254 182.614 235.804 180.739 235.804 178.614C235.804 176.49 236.267 174.615 237.191 172.99C238.141 171.365 239.429 170.116 241.053 169.241C242.678 168.341 244.49 167.891 246.49 167.891C248.49 167.891 250.302 168.341 251.927 169.241C253.551 170.116 254.826 171.365 255.751 172.99C256.701 174.615 257.176 176.49 257.176 178.614C257.176 180.739 256.688 182.614 255.713 184.238C254.764 185.863 253.464 187.125 251.814 188.025C250.189 188.9 248.365 189.337 246.34 189.337ZM246.34 184.763C247.29 184.763 248.177 184.538 249.002 184.088C249.852 183.613 250.527 182.914 251.027 181.989C251.527 181.064 251.777 179.939 251.777 178.614C251.777 176.64 251.252 175.127 250.202 174.077C249.177 173.003 247.915 172.465 246.415 172.465C244.915 172.465 243.653 173.003 242.628 174.077C241.628 175.127 241.128 176.64 241.128 178.614C241.128 180.589 241.616 182.114 242.591 183.188C243.59 184.238 244.84 184.763 246.34 184.763Z" fill="white"/>
<path d="M385.496 286.576C385.496 287.771 385.208 288.891 384.632 289.936C384.077 290.981 383.192 291.824 381.976 292.464C380.781 293.104 379.267 293.424 377.432 293.424H373.688V302H369.208V279.664H377.432C379.16 279.664 380.632 279.963 381.848 280.56C383.064 281.157 383.971 281.979 384.568 283.024C385.187 284.069 385.496 285.253 385.496 286.576ZM377.24 289.808C378.477 289.808 379.395 289.531 379.992 288.976C380.589 288.4 380.888 287.6 380.888 286.576C380.888 284.4 379.672 283.312 377.24 283.312H373.688V289.808H377.24ZM393.157 287.024C393.733 286.085 394.479 285.349 395.397 284.816C396.335 284.283 397.402 284.016 398.597 284.016V288.72H397.413C396.005 288.72 394.938 289.051 394.213 289.712C393.509 290.373 393.157 291.525 393.157 293.168V302H388.677V284.272H393.157V287.024ZM409.486 302.288C407.78 302.288 406.244 301.915 404.878 301.168C403.513 300.4 402.436 299.323 401.646 297.936C400.878 296.549 400.494 294.949 400.494 293.136C400.494 291.323 400.889 289.723 401.678 288.336C402.489 286.949 403.588 285.883 404.974 285.136C406.361 284.368 407.908 283.984 409.614 283.984C411.321 283.984 412.868 284.368 414.254 285.136C415.641 285.883 416.729 286.949 417.518 288.336C418.329 289.723 418.734 291.323 418.734 293.136C418.734 294.949 418.318 296.549 417.486 297.936C416.676 299.323 415.566 300.4 414.158 301.168C412.772 301.915 411.214 302.288 409.486 302.288ZM409.486 298.384C410.297 298.384 411.054 298.192 411.758 297.808C412.484 297.403 413.06 296.805 413.486 296.016C413.913 295.227 414.126 294.267 414.126 293.136C414.126 291.451 413.678 290.16 412.782 289.264C411.908 288.347 410.83 287.888 409.55 287.888C408.27 287.888 407.193 288.347 406.318 289.264C405.465 290.16 405.038 291.451 405.038 293.136C405.038 294.821 405.454 296.123 406.286 297.04C407.14 297.936 408.206 298.384 409.486 298.384ZM420.868 293.072C420.868 291.28 421.22 289.691 421.924 288.304C422.65 286.917 423.631 285.851 424.869 285.104C426.106 284.357 427.482 283.984 428.997 283.984C430.149 283.984 431.247 284.24 432.293 284.752C433.338 285.243 434.17 285.904 434.789 286.736V278.32H439.333V302H434.789V299.376C434.234 300.251 433.455 300.955 432.453 301.488C431.45 302.021 430.287 302.288 428.965 302.288C427.471 302.288 426.106 301.904 424.869 301.136C423.631 300.368 422.65 299.291 421.924 297.904C421.22 296.496 420.868 294.885 420.868 293.072ZM434.821 293.136C434.821 292.048 434.607 291.12 434.181 290.352C433.754 289.563 433.178 288.965 432.453 288.56C431.727 288.133 430.949 287.92 430.117 287.92C429.285 287.92 428.517 288.123 427.812 288.528C427.109 288.933 426.533 289.531 426.085 290.32C425.658 291.088 425.445 292.005 425.445 293.072C425.445 294.139 425.658 295.077 426.085 295.888C426.533 296.677 427.109 297.285 427.812 297.712C428.538 298.139 429.306 298.352 430.117 298.352C430.949 298.352 431.727 298.149 432.453 297.744C433.178 297.317 433.754 296.72 434.181 295.952C434.607 295.163 434.821 294.224 434.821 293.136ZM460.444 284.272V302H455.932V299.76C455.356 300.528 454.599 301.136 453.66 301.584C452.743 302.011 451.74 302.224 450.652 302.224C449.265 302.224 448.039 301.936 446.972 301.36C445.905 300.763 445.063 299.899 444.444 298.768C443.847 297.616 443.548 296.251 443.548 294.672V284.272H448.028V294.032C448.028 295.44 448.38 296.528 449.084 297.296C449.788 298.043 450.748 298.416 451.964 298.416C453.201 298.416 454.172 298.043 454.876 297.296C455.58 296.528 455.932 295.44 455.932 294.032V284.272H460.444ZM463.712 293.136C463.712 291.301 464.086 289.701 464.832 288.336C465.579 286.949 466.614 285.883 467.936 285.136C469.259 284.368 470.774 283.984 472.48 283.984C474.678 283.984 476.491 284.539 477.92 285.648C479.371 286.736 480.342 288.272 480.832 290.256H476C475.744 289.488 475.307 288.891 474.688 288.464C474.091 288.016 473.344 287.792 472.448 287.792C471.168 287.792 470.155 288.261 469.408 289.2C468.662 290.117 468.288 291.429 468.288 293.136C468.288 294.821 468.662 296.133 469.408 297.072C470.155 297.989 471.168 298.448 472.448 298.448C474.262 298.448 475.446 297.637 476 296.016H480.832C480.342 297.936 479.371 299.461 477.92 300.592C476.47 301.723 474.656 302.288 472.48 302.288C470.774 302.288 469.259 301.915 467.936 301.168C466.614 300.4 465.579 299.333 464.832 297.968C464.086 296.581 463.712 294.971 463.712 293.136ZM489.33 287.952V296.528C489.33 297.125 489.469 297.563 489.746 297.84C490.045 298.096 490.536 298.224 491.218 298.224H493.298V302H490.482C486.706 302 484.818 300.165 484.818 296.496V287.952H482.706V284.272H484.818V279.888H489.33V284.272H493.298V287.952H489.33Z" fill="white"/>
<path d="M378.304 350.272V352.048H371.032V357.688H376.936V359.464H371.032V367H368.848V350.272H378.304ZM386.678 367.216C385.446 367.216 384.326 366.936 383.318 366.376C382.326 365.816 381.542 365.024 380.966 364C380.406 362.96 380.126 361.76 380.126 360.4C380.126 359.056 380.414 357.872 380.99 356.848C381.582 355.808 382.382 355.016 383.39 354.472C384.398 353.912 385.526 353.632 386.774 353.632C388.022 353.632 389.15 353.912 390.158 354.472C391.166 355.016 391.958 355.8 392.534 356.824C393.126 357.848 393.422 359.04 393.422 360.4C393.422 361.76 393.118 362.96 392.51 364C391.918 365.024 391.11 365.816 390.086 366.376C389.062 366.936 387.926 367.216 386.678 367.216ZM386.678 365.296C387.462 365.296 388.198 365.112 388.886 364.744C389.574 364.376 390.126 363.824 390.542 363.088C390.974 362.352 391.19 361.456 391.19 360.4C391.19 359.344 390.982 358.448 390.566 357.712C390.15 356.976 389.606 356.432 388.934 356.08C388.262 355.712 387.534 355.528 386.75 355.528C385.95 355.528 385.214 355.712 384.542 356.08C383.886 356.432 383.358 356.976 382.958 357.712C382.558 358.448 382.358 359.344 382.358 360.4C382.358 361.472 382.55 362.376 382.934 363.112C383.334 363.848 383.862 364.4 384.518 364.768C385.174 365.12 385.894 365.296 386.678 365.296ZM398.477 355.984C398.861 355.232 399.405 354.648 400.109 354.232C400.829 353.816 401.701 353.608 402.725 353.608V355.864H402.149C399.701 355.864 398.477 357.192 398.477 359.848V367H396.293V353.848H398.477V355.984ZM413.829 350.272V367H411.645V350.272H413.829ZM423.959 353.608C425.559 353.608 426.855 354.096 427.847 355.072C428.839 356.032 429.335 357.424 429.335 359.248V367H427.175V359.56C427.175 358.248 426.847 357.248 426.191 356.56C425.535 355.856 424.639 355.504 423.503 355.504C422.351 355.504 421.431 355.864 420.743 356.584C420.071 357.304 419.735 358.352 419.735 359.728V367H417.551V353.848H419.735V355.72C420.167 355.048 420.751 354.528 421.487 354.16C422.239 353.792 423.063 353.608 423.959 353.608ZM432.087 360.376C432.087 359.032 432.359 357.856 432.903 356.848C433.447 355.824 434.191 355.032 435.135 354.472C436.095 353.912 437.167 353.632 438.351 353.632C439.375 353.632 440.327 353.872 441.207 354.352C442.087 354.816 442.759 355.432 443.223 356.2V349.24H445.431V367H443.223V364.528C442.791 365.312 442.151 365.96 441.303 366.472C440.455 366.968 439.463 367.216 438.327 367.216C437.159 367.216 436.095 366.928 435.135 366.352C434.191 365.776 433.447 364.968 432.903 363.928C432.359 362.888 432.087 361.704 432.087 360.376ZM443.223 360.4C443.223 359.408 443.023 358.544 442.623 357.808C442.223 357.072 441.679 356.512 440.991 356.128C440.319 355.728 439.575 355.528 438.759 355.528C437.943 355.528 437.199 355.72 436.527 356.104C435.855 356.488 435.319 357.048 434.919 357.784C434.519 358.52 434.319 359.384 434.319 360.376C434.319 361.384 434.519 362.264 434.919 363.016C435.319 363.752 435.855 364.32 436.527 364.72C437.199 365.104 437.943 365.296 438.759 365.296C439.575 365.296 440.319 365.104 440.991 364.72C441.679 364.32 442.223 363.752 442.623 363.016C443.023 362.264 443.223 361.392 443.223 360.4ZM450.249 351.712C449.833 351.712 449.481 351.568 449.193 351.28C448.905 350.992 448.761 350.64 448.761 350.224C448.761 349.808 448.905 349.456 449.193 349.168C449.481 348.88 449.833 348.736 450.249 348.736C450.649 348.736 450.985 348.88 451.257 349.168C451.545 349.456 451.689 349.808 451.689 350.224C451.689 350.64 451.545 350.992 451.257 351.28C450.985 351.568 450.649 351.712 450.249 351.712ZM451.305 353.848V367H449.121V353.848H451.305ZM459.924 364.984L464.004 353.848H466.332L461.172 367H458.628L453.468 353.848H455.82L459.924 364.984ZM469.609 351.712C469.193 351.712 468.841 351.568 468.553 351.28C468.265 350.992 468.121 350.64 468.121 350.224C468.121 349.808 468.265 349.456 468.553 349.168C468.841 348.88 469.193 348.736 469.609 348.736C470.009 348.736 470.345 348.88 470.617 349.168C470.905 349.456 471.049 349.808 471.049 350.224C471.049 350.64 470.905 350.992 470.617 351.28C470.345 351.568 470.009 351.712 469.609 351.712ZM470.665 353.848V367H468.481V353.848H470.665ZM473.571 360.376C473.571 359.032 473.843 357.856 474.387 356.848C474.931 355.824 475.675 355.032 476.619 354.472C477.579 353.912 478.651 353.632 479.835 353.632C480.859 353.632 481.811 353.872 482.691 354.352C483.571 354.816 484.243 355.432 484.707 356.2V349.24H486.915V367H484.707V364.528C484.275 365.312 483.635 365.96 482.787 366.472C481.939 366.968 480.947 367.216 479.811 367.216C478.643 367.216 477.579 366.928 476.619 366.352C475.675 365.776 474.931 364.968 474.387 363.928C473.843 362.888 473.571 361.704 473.571 360.376ZM484.707 360.4C484.707 359.408 484.507 358.544 484.107 357.808C483.707 357.072 483.163 356.512 482.475 356.128C481.803 355.728 481.059 355.528 480.243 355.528C479.427 355.528 478.683 355.72 478.011 356.104C477.339 356.488 476.803 357.048 476.403 357.784C476.003 358.52 475.803 359.384 475.803 360.376C475.803 361.384 476.003 362.264 476.403 363.016C476.803 363.752 477.339 364.32 478.011 364.72C478.683 365.104 479.427 365.296 480.243 365.296C481.059 365.296 481.803 365.104 482.475 364.72C483.163 364.32 483.707 363.752 484.107 363.016C484.507 362.264 484.707 361.392 484.707 360.4ZM502.27 353.848V367H500.086V365.056C499.67 365.728 499.086 366.256 498.334 366.64C497.598 367.008 496.782 367.192 495.886 367.192C494.862 367.192 493.942 366.984 493.126 366.568C492.31 366.136 491.662 365.496 491.182 364.648C490.718 363.8 490.486 362.768 490.486 361.552V353.848H492.646V361.264C492.646 362.56 492.974 363.56 493.63 364.264C494.286 364.952 495.182 365.296 496.318 365.296C497.486 365.296 498.406 364.936 499.078 364.216C499.75 363.496 500.086 362.448 500.086 361.072V353.848H502.27ZM505.141 360.376C505.141 359.032 505.413 357.856 505.957 356.848C506.501 355.824 507.245 355.032 508.189 354.472C509.149 353.912 510.213 353.632 511.381 353.632C512.533 353.632 513.533 353.88 514.381 354.376C515.229 354.872 515.861 355.496 516.277 356.248V353.848H518.485V367H516.277V364.552C515.845 365.32 515.197 365.96 514.333 366.472C513.485 366.968 512.493 367.216 511.357 367.216C510.189 367.216 509.133 366.928 508.189 366.352C507.245 365.776 506.501 364.968 505.957 363.928C505.413 362.888 505.141 361.704 505.141 360.376ZM516.277 360.4C516.277 359.408 516.077 358.544 515.677 357.808C515.277 357.072 514.733 356.512 514.045 356.128C513.373 355.728 512.629 355.528 511.813 355.528C510.997 355.528 510.253 355.72 509.581 356.104C508.909 356.488 508.373 357.048 507.973 357.784C507.573 358.52 507.373 359.384 507.373 360.376C507.373 361.384 507.573 362.264 507.973 363.016C508.373 363.752 508.909 364.32 509.581 364.72C510.253 365.104 510.997 365.296 511.813 365.296C512.629 365.296 513.373 365.104 514.045 364.72C514.733 364.32 515.277 363.752 515.677 363.016C516.077 362.264 516.277 361.392 516.277 360.4ZM524.36 349.24V367H522.176V349.24H524.36Z" fill="white"/>
<path d="M656.736 363.28H649.44L648.096 367H645.792L651.84 350.368H654.36L660.384 367H658.08L656.736 363.28ZM656.112 361.504L653.088 353.056L650.064 361.504H656.112ZM665.204 356.296C665.652 355.512 666.308 354.872 667.172 354.376C668.036 353.88 669.02 353.632 670.124 353.632C671.308 353.632 672.372 353.912 673.316 354.472C674.26 355.032 675.004 355.824 675.548 356.848C676.092 357.856 676.364 359.032 676.364 360.376C676.364 361.704 676.092 362.888 675.548 363.928C675.004 364.968 674.252 365.776 673.292 366.352C672.348 366.928 671.292 367.216 670.124 367.216C668.988 367.216 667.988 366.968 667.124 366.472C666.276 365.976 665.636 365.344 665.204 364.576V367H663.02V349.24H665.204V356.296ZM674.132 360.376C674.132 359.384 673.932 358.52 673.532 357.784C673.132 357.048 672.588 356.488 671.9 356.104C671.228 355.72 670.484 355.528 669.668 355.528C668.868 355.528 668.124 355.728 667.436 356.128C666.764 356.512 666.22 357.08 665.804 357.832C665.404 358.568 665.204 359.424 665.204 360.4C665.204 361.392 665.404 362.264 665.804 363.016C666.22 363.752 666.764 364.32 667.436 364.72C668.124 365.104 668.868 365.296 669.668 365.296C670.484 365.296 671.228 365.104 671.9 364.72C672.588 364.32 673.132 363.752 673.532 363.016C673.932 362.264 674.132 361.384 674.132 360.376ZM684.975 367.216C683.743 367.216 682.623 366.936 681.615 366.376C680.623 365.816 679.839 365.024 679.263 364C678.703 362.96 678.423 361.76 678.423 360.4C678.423 359.056 678.711 357.872 679.287 356.848C679.879 355.808 680.679 355.016 681.687 354.472C682.695 353.912 683.823 353.632 685.071 353.632C686.319 353.632 687.447 353.912 688.455 354.472C689.463 355.016 690.255 355.8 690.831 356.824C691.423 357.848 691.719 359.04 691.719 360.4C691.719 361.76 691.415 362.96 690.807 364C690.215 365.024 689.407 365.816 688.383 366.376C687.359 366.936 686.223 367.216 684.975 367.216ZM684.975 365.296C685.759 365.296 686.495 365.112 687.183 364.744C687.871 364.376 688.423 363.824 688.839 363.088C689.271 362.352 689.487 361.456 689.487 360.4C689.487 359.344 689.279 358.448 688.863 357.712C688.447 356.976 687.903 356.432 687.231 356.08C686.559 355.712 685.831 355.528 685.047 355.528C684.247 355.528 683.511 355.712 682.839 356.08C682.183 356.432 681.655 356.976 681.255 357.712C680.855 358.448 680.655 359.344 680.655 360.4C680.655 361.472 680.847 362.376 681.231 363.112C681.631 363.848 682.159 364.4 682.815 364.768C683.471 365.12 684.191 365.296 684.975 365.296ZM706.254 353.848V367H704.07V365.056C703.654 365.728 703.07 366.256 702.318 366.64C701.582 367.008 700.766 367.192 699.87 367.192C698.846 367.192 697.926 366.984 697.11 366.568C696.294 366.136 695.646 365.496 695.166 364.648C694.702 363.8 694.47 362.768 694.47 361.552V353.848H696.63V361.264C696.63 362.56 696.958 363.56 697.614 364.264C698.27 364.952 699.166 365.296 700.302 365.296C701.47 365.296 702.39 364.936 703.062 364.216C703.734 363.496 704.07 362.448 704.07 361.072V353.848H706.254ZM712.606 355.648V363.4C712.606 364.04 712.742 364.496 713.014 364.768C713.286 365.024 713.758 365.152 714.43 365.152H716.038V367H714.07C712.854 367 711.942 366.72 711.334 366.16C710.726 365.6 710.422 364.68 710.422 363.4V355.648H708.718V353.848H710.422V350.536H712.606V353.848H716.038V355.648H712.606ZM736.746 353.848V367H734.562V365.056C734.146 365.728 733.562 366.256 732.81 366.64C732.074 367.008 731.258 367.192 730.362 367.192C729.338 367.192 728.418 366.984 727.602 366.568C726.786 366.136 726.138 365.496 725.658 364.648C725.194 363.8 724.962 362.768 724.962 361.552V353.848H727.122V361.264C727.122 362.56 727.45 363.56 728.106 364.264C728.762 364.952 729.658 365.296 730.794 365.296C731.962 365.296 732.882 364.936 733.554 364.216C734.226 363.496 734.562 362.448 734.562 361.072V353.848H736.746ZM745.09 367.216C744.082 367.216 743.178 367.048 742.378 366.712C741.578 366.36 740.946 365.88 740.482 365.272C740.018 364.648 739.762 363.936 739.714 363.136H741.97C742.034 363.792 742.338 364.328 742.882 364.744C743.442 365.16 744.17 365.368 745.066 365.368C745.898 365.368 746.554 365.184 747.034 364.816C747.514 364.448 747.754 363.984 747.754 363.424C747.754 362.848 747.498 362.424 746.986 362.152C746.474 361.864 745.682 361.584 744.61 361.312C743.634 361.056 742.834 360.8 742.21 360.544C741.602 360.272 741.074 359.88 740.626 359.368C740.194 358.84 739.978 358.152 739.978 357.304C739.978 356.632 740.178 356.016 740.578 355.456C740.978 354.896 741.546 354.456 742.282 354.136C743.018 353.8 743.858 353.632 744.802 353.632C746.258 353.632 747.434 354 748.33 354.736C749.226 355.472 749.706 356.48 749.77 357.76H747.586C747.538 357.072 747.258 356.52 746.746 356.104C746.25 355.688 745.578 355.48 744.73 355.48C743.946 355.48 743.322 355.648 742.858 355.984C742.394 356.32 742.162 356.76 742.162 357.304C742.162 357.736 742.298 358.096 742.57 358.384C742.858 358.656 743.21 358.88 743.626 359.056C744.058 359.216 744.65 359.4 745.402 359.608C746.346 359.864 747.114 360.12 747.706 360.376C748.298 360.616 748.802 360.984 749.218 361.48C749.65 361.976 749.874 362.624 749.89 363.424C749.89 364.144 749.69 364.792 749.29 365.368C748.89 365.944 748.322 366.4 747.586 366.736C746.866 367.056 746.034 367.216 745.09 367.216Z" fill="white"/>
<path d="M1014.3 338.272V340.048H1007.03V345.688H1012.94V347.464H1007.03V355H1004.85V338.272H1014.3ZM1016.13 348.376C1016.13 347.032 1016.4 345.856 1016.94 344.848C1017.49 343.824 1018.23 343.032 1019.17 342.472C1020.13 341.912 1021.2 341.632 1022.37 341.632C1023.52 341.632 1024.52 341.88 1025.37 342.376C1026.21 342.872 1026.85 343.496 1027.26 344.248V341.848H1029.47V355H1027.26V352.552C1026.83 353.32 1026.18 353.96 1025.32 354.472C1024.47 354.968 1023.48 355.216 1022.34 355.216C1021.17 355.216 1020.12 354.928 1019.17 354.352C1018.23 353.776 1017.49 352.968 1016.94 351.928C1016.4 350.888 1016.13 349.704 1016.13 348.376ZM1027.26 348.4C1027.26 347.408 1027.06 346.544 1026.66 345.808C1026.26 345.072 1025.72 344.512 1025.03 344.128C1024.36 343.728 1023.61 343.528 1022.8 343.528C1021.98 343.528 1021.24 343.72 1020.57 344.104C1019.89 344.488 1019.36 345.048 1018.96 345.784C1018.56 346.52 1018.36 347.384 1018.36 348.376C1018.36 349.384 1018.56 350.264 1018.96 351.016C1019.36 351.752 1019.89 352.32 1020.57 352.72C1021.24 353.104 1021.98 353.296 1022.8 353.296C1023.61 353.296 1024.36 353.104 1025.03 352.72C1025.72 352.32 1026.26 351.752 1026.66 351.016C1027.06 350.264 1027.26 349.392 1027.26 348.4ZM1032.34 348.4C1032.34 347.04 1032.62 345.856 1033.16 344.848C1033.7 343.824 1034.46 343.032 1035.42 342.472C1036.39 341.912 1037.5 341.632 1038.75 341.632C1040.37 341.632 1041.7 342.024 1042.74 342.808C1043.79 343.592 1044.49 344.68 1044.82 346.072H1042.47C1042.25 345.272 1041.81 344.64 1041.15 344.176C1040.51 343.712 1039.71 343.48 1038.75 343.48C1037.5 343.48 1036.5 343.912 1035.73 344.776C1034.96 345.624 1034.58 346.832 1034.58 348.4C1034.58 349.984 1034.96 351.208 1035.73 352.072C1036.5 352.936 1037.5 353.368 1038.75 353.368C1039.71 353.368 1040.51 353.144 1041.15 352.696C1041.79 352.248 1042.23 351.608 1042.47 350.776H1044.82C1044.47 352.12 1043.77 353.2 1042.71 354.016C1041.66 354.816 1040.34 355.216 1038.75 355.216C1037.5 355.216 1036.39 354.936 1035.42 354.376C1034.46 353.816 1033.7 353.024 1033.16 352C1032.62 350.976 1032.34 349.776 1032.34 348.4ZM1059.74 347.92C1059.74 348.336 1059.71 348.776 1059.67 349.24H1049.15C1049.23 350.536 1049.67 351.552 1050.47 352.288C1051.29 353.008 1052.27 353.368 1053.43 353.368C1054.37 353.368 1055.15 353.152 1055.78 352.72C1056.42 352.272 1056.87 351.68 1057.12 350.944H1059.47C1059.12 352.208 1058.42 353.24 1057.36 354.04C1056.31 354.824 1054.99 355.216 1053.43 355.216C1052.18 355.216 1051.06 354.936 1050.07 354.376C1049.09 353.816 1048.32 353.024 1047.76 352C1047.2 350.96 1046.92 349.76 1046.92 348.4C1046.92 347.04 1047.19 345.848 1047.74 344.824C1048.28 343.8 1049.04 343.016 1050.02 342.472C1051.01 341.912 1052.15 341.632 1053.43 341.632C1054.67 341.632 1055.78 341.904 1056.74 342.448C1057.7 342.992 1058.43 343.744 1058.95 344.704C1059.47 345.648 1059.74 346.72 1059.74 347.92ZM1057.48 347.464C1057.48 346.632 1057.3 345.92 1056.93 345.328C1056.56 344.72 1056.06 344.264 1055.42 343.96C1054.79 343.64 1054.1 343.48 1053.33 343.48C1052.23 343.48 1051.28 343.832 1050.5 344.536C1049.73 345.24 1049.29 346.216 1049.18 347.464H1057.48ZM1064.81 344.296C1065.25 343.512 1065.91 342.872 1066.77 342.376C1067.64 341.88 1068.62 341.632 1069.73 341.632C1070.91 341.632 1071.97 341.912 1072.92 342.472C1073.86 343.032 1074.61 343.824 1075.15 344.848C1075.69 345.856 1075.97 347.032 1075.97 348.376C1075.97 349.704 1075.69 350.888 1075.15 351.928C1074.61 352.968 1073.85 353.776 1072.89 354.352C1071.95 354.928 1070.89 355.216 1069.73 355.216C1068.59 355.216 1067.59 354.968 1066.73 354.472C1065.88 353.976 1065.24 353.344 1064.81 352.576V355H1062.62V337.24H1064.81V344.296ZM1073.73 348.376C1073.73 347.384 1073.53 346.52 1073.13 345.784C1072.73 345.048 1072.19 344.488 1071.5 344.104C1070.83 343.72 1070.09 343.528 1069.27 343.528C1068.47 343.528 1067.73 343.728 1067.04 344.128C1066.37 344.512 1065.82 345.08 1065.41 345.832C1065.01 346.568 1064.81 347.424 1064.81 348.4C1064.81 349.392 1065.01 350.264 1065.41 351.016C1065.82 351.752 1066.37 352.32 1067.04 352.72C1067.73 353.104 1068.47 353.296 1069.27 353.296C1070.09 353.296 1070.83 353.104 1071.5 352.72C1072.19 352.32 1072.73 351.752 1073.13 351.016C1073.53 350.264 1073.73 349.384 1073.73 348.376ZM1084.58 355.216C1083.34 355.216 1082.22 354.936 1081.22 354.376C1080.22 353.816 1079.44 353.024 1078.86 352C1078.3 350.96 1078.02 349.76 1078.02 348.4C1078.02 347.056 1078.31 345.872 1078.89 344.848C1079.48 343.808 1080.28 343.016 1081.29 342.472C1082.3 341.912 1083.42 341.632 1084.67 341.632C1085.92 341.632 1087.05 341.912 1088.06 342.472C1089.06 343.016 1089.86 343.8 1090.43 344.824C1091.02 345.848 1091.32 347.04 1091.32 348.4C1091.32 349.76 1091.02 350.96 1090.41 352C1089.82 353.024 1089.01 353.816 1087.98 354.376C1086.96 354.936 1085.82 355.216 1084.58 355.216ZM1084.58 353.296C1085.36 353.296 1086.1 353.112 1086.78 352.744C1087.47 352.376 1088.02 351.824 1088.44 351.088C1088.87 350.352 1089.09 349.456 1089.09 348.4C1089.09 347.344 1088.88 346.448 1088.46 345.712C1088.05 344.976 1087.5 344.432 1086.83 344.08C1086.16 343.712 1085.43 343.528 1084.65 343.528C1083.85 343.528 1083.11 343.712 1082.44 344.08C1081.78 344.432 1081.26 344.976 1080.86 345.712C1080.46 346.448 1080.26 347.344 1080.26 348.4C1080.26 349.472 1080.45 350.376 1080.83 351.112C1081.23 351.848 1081.76 352.4 1082.42 352.768C1083.07 353.12 1083.79 353.296 1084.58 353.296ZM1099.93 355.216C1098.7 355.216 1097.58 354.936 1096.57 354.376C1095.58 353.816 1094.79 353.024 1094.22 352C1093.66 350.96 1093.38 349.76 1093.38 348.4C1093.38 347.056 1093.66 345.872 1094.24 344.848C1094.83 343.808 1095.63 343.016 1096.64 342.472C1097.65 341.912 1098.78 341.632 1100.02 341.632C1101.27 341.632 1102.4 341.912 1103.41 342.472C1104.42 343.016 1105.21 343.8 1105.78 344.824C1106.38 345.848 1106.67 347.04 1106.67 348.4C1106.67 349.76 1106.37 350.96 1105.76 352C1105.17 353.024 1104.36 353.816 1103.34 354.376C1102.31 354.936 1101.18 355.216 1099.93 355.216ZM1099.93 353.296C1100.71 353.296 1101.45 353.112 1102.14 352.744C1102.82 352.376 1103.38 351.824 1103.79 351.088C1104.22 350.352 1104.44 349.456 1104.44 348.4C1104.44 347.344 1104.23 346.448 1103.82 345.712C1103.4 344.976 1102.86 344.432 1102.18 344.08C1101.51 343.712 1100.78 343.528 1100 343.528C1099.2 343.528 1098.46 343.712 1097.79 344.08C1097.14 344.432 1096.61 344.976 1096.21 345.712C1095.81 346.448 1095.61 347.344 1095.61 348.4C1095.61 349.472 1095.8 350.376 1096.18 351.112C1096.58 351.848 1097.11 352.4 1097.77 352.768C1098.42 353.12 1099.14 353.296 1099.93 353.296ZM1116.89 355L1111.73 349.192V355H1109.54V337.24H1111.73V347.68L1116.79 341.848H1119.84L1113.65 348.4L1119.86 355H1116.89Z" fill="white"/>
<path d="M1007.03 386.272V403H1004.85V386.272H1007.03ZM1017.16 389.608C1018.76 389.608 1020.06 390.096 1021.05 391.072C1022.04 392.032 1022.54 393.424 1022.54 395.248V403H1020.38V395.56C1020.38 394.248 1020.05 393.248 1019.39 392.56C1018.74 391.856 1017.84 391.504 1016.71 391.504C1015.55 391.504 1014.63 391.864 1013.95 392.584C1013.27 393.304 1012.94 394.352 1012.94 395.728V403H1010.75V389.848H1012.94V391.72C1013.37 391.048 1013.95 390.528 1014.69 390.16C1015.44 389.792 1016.27 389.608 1017.16 389.608ZM1030.76 403.216C1029.75 403.216 1028.85 403.048 1028.05 402.712C1027.25 402.36 1026.62 401.88 1026.15 401.272C1025.69 400.648 1025.43 399.936 1025.39 399.136H1027.64C1027.71 399.792 1028.01 400.328 1028.55 400.744C1029.11 401.16 1029.84 401.368 1030.74 401.368C1031.57 401.368 1032.23 401.184 1032.71 400.816C1033.19 400.448 1033.43 399.984 1033.43 399.424C1033.43 398.848 1033.17 398.424 1032.66 398.152C1032.15 397.864 1031.35 397.584 1030.28 397.312C1029.31 397.056 1028.51 396.8 1027.88 396.544C1027.27 396.272 1026.75 395.88 1026.3 395.368C1025.87 394.84 1025.65 394.152 1025.65 393.304C1025.65 392.632 1025.85 392.016 1026.25 391.456C1026.65 390.896 1027.22 390.456 1027.95 390.136C1028.69 389.8 1029.53 389.632 1030.47 389.632C1031.93 389.632 1033.11 390 1034 390.736C1034.9 391.472 1035.38 392.48 1035.44 393.76H1033.26C1033.21 393.072 1032.93 392.52 1032.42 392.104C1031.92 391.688 1031.25 391.48 1030.4 391.48C1029.62 391.48 1028.99 391.648 1028.53 391.984C1028.07 392.32 1027.83 392.76 1027.83 393.304C1027.83 393.736 1027.97 394.096 1028.24 394.384C1028.53 394.656 1028.88 394.88 1029.3 395.056C1029.73 395.216 1030.32 395.4 1031.07 395.608C1032.02 395.864 1032.79 396.12 1033.38 396.376C1033.97 396.616 1034.47 396.984 1034.89 397.48C1035.32 397.976 1035.55 398.624 1035.56 399.424C1035.56 400.144 1035.36 400.792 1034.96 401.368C1034.56 401.944 1033.99 402.4 1033.26 402.736C1032.54 403.056 1031.71 403.216 1030.76 403.216ZM1041.31 391.648V399.4C1041.31 400.04 1041.44 400.496 1041.72 400.768C1041.99 401.024 1042.46 401.152 1043.13 401.152H1044.74V403H1042.77C1041.56 403 1040.64 402.72 1040.04 402.16C1039.43 401.6 1039.12 400.68 1039.12 399.4V391.648H1037.42V389.848H1039.12V386.536H1041.31V389.848H1044.74V391.648H1041.31ZM1046.57 396.376C1046.57 395.032 1046.84 393.856 1047.39 392.848C1047.93 391.824 1048.68 391.032 1049.62 390.472C1050.58 389.912 1051.64 389.632 1052.81 389.632C1053.96 389.632 1054.96 389.88 1055.81 390.376C1056.66 390.872 1057.29 391.496 1057.71 392.248V389.848H1059.92V403H1057.71V400.552C1057.28 401.32 1056.63 401.96 1055.76 402.472C1054.92 402.968 1053.92 403.216 1052.79 403.216C1051.62 403.216 1050.56 402.928 1049.62 402.352C1048.68 401.776 1047.93 400.968 1047.39 399.928C1046.84 398.888 1046.57 397.704 1046.57 396.376ZM1057.71 396.4C1057.71 395.408 1057.51 394.544 1057.11 393.808C1056.71 393.072 1056.16 392.512 1055.48 392.128C1054.8 391.728 1054.06 391.528 1053.24 391.528C1052.43 391.528 1051.68 391.72 1051.01 392.104C1050.34 392.488 1049.8 393.048 1049.4 393.784C1049 394.52 1048.8 395.384 1048.8 396.376C1048.8 397.384 1049 398.264 1049.4 399.016C1049.8 399.752 1050.34 400.32 1051.01 400.72C1051.68 401.104 1052.43 401.296 1053.24 401.296C1054.06 401.296 1054.8 401.104 1055.48 400.72C1056.16 400.32 1056.71 399.752 1057.11 399.016C1057.51 398.264 1057.71 397.392 1057.71 396.4ZM1069.03 389.632C1070.17 389.632 1071.16 389.88 1072.01 390.376C1072.87 390.872 1073.51 391.496 1073.93 392.248V389.848H1076.13V403.288C1076.13 404.488 1075.88 405.552 1075.37 406.48C1074.85 407.424 1074.12 408.16 1073.16 408.688C1072.21 409.216 1071.11 409.48 1069.85 409.48C1068.12 409.48 1066.68 409.072 1065.53 408.256C1064.37 407.44 1063.69 406.328 1063.49 404.92H1065.65C1065.89 405.72 1066.38 406.36 1067.13 406.84C1067.89 407.336 1068.79 407.584 1069.85 407.584C1071.05 407.584 1072.02 407.208 1072.77 406.456C1073.54 405.704 1073.93 404.648 1073.93 403.288V400.528C1073.49 401.296 1072.85 401.936 1072.01 402.448C1071.16 402.96 1070.17 403.216 1069.03 403.216C1067.86 403.216 1066.8 402.928 1065.84 402.352C1064.89 401.776 1064.15 400.968 1063.61 399.928C1063.06 398.888 1062.79 397.704 1062.79 396.376C1062.79 395.032 1063.06 393.856 1063.61 392.848C1064.15 391.824 1064.89 391.032 1065.84 390.472C1066.8 389.912 1067.86 389.632 1069.03 389.632ZM1073.93 396.4C1073.93 395.408 1073.73 394.544 1073.33 393.808C1072.93 393.072 1072.38 392.512 1071.69 392.128C1071.02 391.728 1070.28 391.528 1069.46 391.528C1068.65 391.528 1067.9 391.72 1067.23 392.104C1066.56 392.488 1066.02 393.048 1065.62 393.784C1065.22 394.52 1065.02 395.384 1065.02 396.376C1065.02 397.384 1065.22 398.264 1065.62 399.016C1066.02 399.752 1066.56 400.32 1067.23 400.72C1067.9 401.104 1068.65 401.296 1069.46 401.296C1070.28 401.296 1071.02 401.104 1071.69 400.72C1072.38 400.32 1072.93 399.752 1073.33 399.016C1073.73 398.264 1073.93 397.392 1073.93 396.4ZM1082.01 391.984C1082.39 391.232 1082.94 390.648 1083.64 390.232C1084.36 389.816 1085.23 389.608 1086.26 389.608V391.864H1085.68C1083.23 391.864 1082.01 393.192 1082.01 395.848V403H1079.82V389.848H1082.01V391.984ZM1087.96 396.376C1087.96 395.032 1088.23 393.856 1088.78 392.848C1089.32 391.824 1090.07 391.032 1091.01 390.472C1091.97 389.912 1093.03 389.632 1094.2 389.632C1095.35 389.632 1096.35 389.88 1097.2 390.376C1098.05 390.872 1098.68 391.496 1099.1 392.248V389.848H1101.31V403H1099.1V400.552C1098.67 401.32 1098.02 401.96 1097.15 402.472C1096.31 402.968 1095.31 403.216 1094.18 403.216C1093.01 403.216 1091.95 402.928 1091.01 402.352C1090.07 401.776 1089.32 400.968 1088.78 399.928C1088.23 398.888 1087.96 397.704 1087.96 396.376ZM1099.1 396.4C1099.1 395.408 1098.9 394.544 1098.5 393.808C1098.1 393.072 1097.55 392.512 1096.87 392.128C1096.19 391.728 1095.45 391.528 1094.63 391.528C1093.82 391.528 1093.07 391.72 1092.4 392.104C1091.73 392.488 1091.19 393.048 1090.79 393.784C1090.39 394.52 1090.19 395.384 1090.19 396.376C1090.19 397.384 1090.39 398.264 1090.79 399.016C1091.19 399.752 1091.73 400.32 1092.4 400.72C1093.07 401.104 1093.82 401.296 1094.63 401.296C1095.45 401.296 1096.19 401.104 1096.87 400.72C1097.55 400.32 1098.1 399.752 1098.5 399.016C1098.9 398.264 1099.1 397.392 1099.1 396.4ZM1120.81 389.608C1121.84 389.608 1122.75 389.824 1123.55 390.256C1124.35 390.672 1124.98 391.304 1125.44 392.152C1125.91 393 1126.14 394.032 1126.14 395.248V403H1123.98V395.56C1123.98 394.248 1123.65 393.248 1123 392.56C1122.36 391.856 1121.48 391.504 1120.38 391.504C1119.24 391.504 1118.34 391.872 1117.67 392.608C1117 393.328 1116.66 394.376 1116.66 395.752V403H1114.5V395.56C1114.5 394.248 1114.17 393.248 1113.52 392.56C1112.88 391.856 1112 391.504 1110.9 391.504C1109.76 391.504 1108.86 391.872 1108.19 392.608C1107.52 393.328 1107.18 394.376 1107.18 395.752V403H1105V389.848H1107.18V391.744C1107.61 391.056 1108.19 390.528 1108.91 390.16C1109.64 389.792 1110.45 389.608 1111.33 389.608C1112.44 389.608 1113.41 389.856 1114.26 390.352C1115.11 390.848 1115.74 391.576 1116.16 392.536C1116.52 391.608 1117.13 390.888 1117.98 390.376C1118.83 389.864 1119.77 389.608 1120.81 389.608Z" fill="white"/>
<path d="M1015.14 430.272V432.048H1010.58V447H1008.4V432.048H1003.82V430.272H1015.14ZM1035.35 433.848L1031.25 447H1028.99L1025.82 436.56L1022.66 447H1020.4L1016.27 433.848H1018.5L1021.53 444.888L1024.79 433.848H1027.02L1030.22 444.912L1033.19 433.848H1035.35ZM1038.65 431.712C1038.23 431.712 1037.88 431.568 1037.59 431.28C1037.3 430.992 1037.16 430.64 1037.16 430.224C1037.16 429.808 1037.3 429.456 1037.59 429.168C1037.88 428.88 1038.23 428.736 1038.65 428.736C1039.05 428.736 1039.38 428.88 1039.66 429.168C1039.94 429.456 1040.09 429.808 1040.09 430.224C1040.09 430.64 1039.94 430.992 1039.66 431.28C1039.38 431.568 1039.05 431.712 1038.65 431.712ZM1039.7 433.848V447H1037.52V433.848H1039.7ZM1046.09 435.648V443.4C1046.09 444.04 1046.23 444.496 1046.5 444.768C1046.77 445.024 1047.24 445.152 1047.91 445.152H1049.52V447H1047.55C1046.34 447 1045.43 446.72 1044.82 446.16C1044.21 445.6 1043.91 444.68 1043.91 443.4V435.648H1042.2V433.848H1043.91V430.536H1046.09V433.848H1049.52V435.648H1046.09ZM1054.83 435.648V443.4C1054.83 444.04 1054.97 444.496 1055.24 444.768C1055.51 445.024 1055.98 445.152 1056.66 445.152H1058.26V447H1056.3C1055.08 447 1054.17 446.72 1053.56 446.16C1052.95 445.6 1052.65 444.68 1052.65 443.4V435.648H1050.94V433.848H1052.65V430.536H1054.83V433.848H1058.26V435.648H1054.83ZM1072.91 439.92C1072.91 440.336 1072.89 440.776 1072.84 441.24H1062.33C1062.41 442.536 1062.85 443.552 1063.65 444.288C1064.46 445.008 1065.45 445.368 1066.6 445.368C1067.54 445.368 1068.33 445.152 1068.95 444.72C1069.59 444.272 1070.04 443.68 1070.29 442.944H1072.65C1072.29 444.208 1071.59 445.24 1070.53 446.04C1069.48 446.824 1068.17 447.216 1066.6 447.216C1065.35 447.216 1064.23 446.936 1063.24 446.376C1062.26 445.816 1061.49 445.024 1060.93 444C1060.37 442.96 1060.09 441.76 1060.09 440.4C1060.09 439.04 1060.37 437.848 1060.91 436.824C1061.45 435.8 1062.21 435.016 1063.19 434.472C1064.18 433.912 1065.32 433.632 1066.6 433.632C1067.85 433.632 1068.95 433.904 1069.91 434.448C1070.87 434.992 1071.61 435.744 1072.12 436.704C1072.65 437.648 1072.91 438.72 1072.91 439.92ZM1070.65 439.464C1070.65 438.632 1070.47 437.92 1070.1 437.328C1069.73 436.72 1069.23 436.264 1068.59 435.96C1067.97 435.64 1067.27 435.48 1066.5 435.48C1065.4 435.48 1064.45 435.832 1063.67 436.536C1062.9 437.24 1062.46 438.216 1062.35 439.464H1070.65ZM1077.98 435.984C1078.36 435.232 1078.91 434.648 1079.61 434.232C1080.33 433.816 1081.2 433.608 1082.23 433.608V435.864H1081.65C1079.2 435.864 1077.98 437.192 1077.98 439.848V447H1075.79V433.848H1077.98V435.984Z" fill="white"/>
<path d="M657.224 394.384C657.832 394.48 658.384 394.728 658.88 395.128C659.392 395.528 659.792 396.024 660.08 396.616C660.384 397.208 660.536 397.84 660.536 398.512C660.536 399.36 660.32 400.128 659.888 400.816C659.456 401.488 658.824 402.024 657.992 402.424C657.176 402.808 656.208 403 655.088 403H648.848V386.272H654.848C655.984 386.272 656.952 386.464 657.752 386.848C658.552 387.216 659.152 387.72 659.552 388.36C659.952 389 660.152 389.72 660.152 390.52C660.152 391.512 659.88 392.336 659.336 392.992C658.808 393.632 658.104 394.096 657.224 394.384ZM651.032 393.496H654.704C655.728 393.496 656.52 393.256 657.08 392.776C657.64 392.296 657.92 391.632 657.92 390.784C657.92 389.936 657.64 389.272 657.08 388.792C656.52 388.312 655.712 388.072 654.656 388.072H651.032V393.496ZM654.896 401.2C655.984 401.2 656.832 400.944 657.44 400.432C658.048 399.92 658.352 399.208 658.352 398.296C658.352 397.368 658.032 396.64 657.392 396.112C656.752 395.568 655.896 395.296 654.824 395.296H651.032V401.2H654.896ZM665.751 385.24V403H663.567V385.24H665.751ZM675.209 403.216C673.977 403.216 672.857 402.936 671.849 402.376C670.857 401.816 670.073 401.024 669.497 400C668.937 398.96 668.657 397.76 668.657 396.4C668.657 395.056 668.945 393.872 669.521 392.848C670.113 391.808 670.913 391.016 671.921 390.472C672.929 389.912 674.057 389.632 675.305 389.632C676.553 389.632 677.681 389.912 678.689 390.472C679.697 391.016 680.489 391.8 681.065 392.824C681.657 393.848 681.953 395.04 681.953 396.4C681.953 397.76 681.649 398.96 681.041 400C680.449 401.024 679.641 401.816 678.617 402.376C677.593 402.936 676.457 403.216 675.209 403.216ZM675.209 401.296C675.993 401.296 676.729 401.112 677.417 400.744C678.105 400.376 678.657 399.824 679.073 399.088C679.505 398.352 679.721 397.456 679.721 396.4C679.721 395.344 679.513 394.448 679.097 393.712C678.681 392.976 678.137 392.432 677.465 392.08C676.793 391.712 676.065 391.528 675.281 391.528C674.481 391.528 673.745 391.712 673.073 392.08C672.417 392.432 671.889 392.976 671.489 393.712C671.089 394.448 670.889 395.344 670.889 396.4C670.889 397.472 671.081 398.376 671.465 399.112C671.865 399.848 672.393 400.4 673.049 400.768C673.705 401.12 674.425 401.296 675.209 401.296ZM690.249 389.632C691.385 389.632 692.377 389.88 693.225 390.376C694.089 390.872 694.729 391.496 695.145 392.248V389.848H697.353V403.288C697.353 404.488 697.097 405.552 696.585 406.48C696.073 407.424 695.337 408.16 694.377 408.688C693.433 409.216 692.329 409.48 691.065 409.48C689.337 409.48 687.897 409.072 686.745 408.256C685.593 407.44 684.913 406.328 684.705 404.92H686.865C687.105 405.72 687.601 406.36 688.353 406.84C689.105 407.336 690.009 407.584 691.065 407.584C692.265 407.584 693.241 407.208 693.993 406.456C694.761 405.704 695.145 404.648 695.145 403.288V400.528C694.713 401.296 694.073 401.936 693.225 402.448C692.377 402.96 691.385 403.216 690.249 403.216C689.081 403.216 688.017 402.928 687.057 402.352C686.113 401.776 685.369 400.968 684.825 399.928C684.281 398.888 684.009 397.704 684.009 396.376C684.009 395.032 684.281 393.856 684.825 392.848C685.369 391.824 686.113 391.032 687.057 390.472C688.017 389.912 689.081 389.632 690.249 389.632ZM695.145 396.4C695.145 395.408 694.945 394.544 694.545 393.808C694.145 393.072 693.601 392.512 692.913 392.128C692.241 391.728 691.497 391.528 690.681 391.528C689.865 391.528 689.121 391.72 688.449 392.104C687.777 392.488 687.241 393.048 686.841 393.784C686.441 394.52 686.241 395.384 686.241 396.376C686.241 397.384 686.441 398.264 686.841 399.016C687.241 399.752 687.777 400.32 688.449 400.72C689.121 401.104 689.865 401.296 690.681 401.296C691.497 401.296 692.241 401.104 692.913 400.72C693.601 400.32 694.145 399.752 694.545 399.016C694.945 398.264 695.145 397.392 695.145 396.4ZM705.699 403.216C704.691 403.216 703.787 403.048 702.987 402.712C702.187 402.36 701.555 401.88 701.091 401.272C700.627 400.648 700.371 399.936 700.323 399.136H702.579C702.643 399.792 702.947 400.328 703.491 400.744C704.051 401.16 704.779 401.368 705.675 401.368C706.507 401.368 707.163 401.184 707.643 400.816C708.123 400.448 708.363 399.984 708.363 399.424C708.363 398.848 708.107 398.424 707.595 398.152C707.083 397.864 706.291 397.584 705.219 397.312C704.243 397.056 703.443 396.8 702.819 396.544C702.211 396.272 701.683 395.88 701.235 395.368C700.803 394.84 700.587 394.152 700.587 393.304C700.587 392.632 700.787 392.016 701.187 391.456C701.587 390.896 702.155 390.456 702.891 390.136C703.627 389.8 704.467 389.632 705.411 389.632C706.867 389.632 708.043 390 708.939 390.736C709.835 391.472 710.315 392.48 710.379 393.76H708.195C708.147 393.072 707.867 392.52 707.355 392.104C706.859 391.688 706.187 391.48 705.339 391.48C704.555 391.48 703.931 391.648 703.467 391.984C703.003 392.32 702.771 392.76 702.771 393.304C702.771 393.736 702.907 394.096 703.179 394.384C703.467 394.656 703.819 394.88 704.235 395.056C704.667 395.216 705.259 395.4 706.011 395.608C706.955 395.864 707.723 396.12 708.315 396.376C708.907 396.616 709.411 396.984 709.827 397.48C710.259 397.976 710.483 398.624 710.499 399.424C710.499 400.144 710.299 400.792 709.899 401.368C709.499 401.944 708.931 402.4 708.195 402.736C707.475 403.056 706.643 403.216 705.699 403.216Z" fill="white"/>
<path d="M659.144 422.272V424.048H654.584V439H652.4V424.048H647.816V422.272H659.144ZM673.832 431.92C673.832 432.336 673.808 432.776 673.76 433.24H663.248C663.328 434.536 663.768 435.552 664.568 436.288C665.384 437.008 666.368 437.368 667.52 437.368C668.464 437.368 669.248 437.152 669.872 436.72C670.512 436.272 670.96 435.68 671.216 434.944H673.568C673.216 436.208 672.512 437.24 671.456 438.04C670.4 438.824 669.088 439.216 667.52 439.216C666.272 439.216 665.152 438.936 664.16 438.376C663.184 437.816 662.416 437.024 661.856 436C661.296 434.96 661.016 433.76 661.016 432.4C661.016 431.04 661.288 429.848 661.832 428.824C662.376 427.8 663.136 427.016 664.112 426.472C665.104 425.912 666.24 425.632 667.52 425.632C668.768 425.632 669.872 425.904 670.832 426.448C671.792 426.992 672.528 427.744 673.04 428.704C673.568 429.648 673.832 430.72 673.832 431.92ZM671.576 431.464C671.576 430.632 671.392 429.92 671.024 429.328C670.656 428.72 670.152 428.264 669.512 427.96C668.888 427.64 668.192 427.48 667.424 427.48C666.32 427.48 665.376 427.832 664.592 428.536C663.824 429.24 663.384 430.216 663.272 431.464H671.576ZM678.899 427.984C679.283 427.232 679.827 426.648 680.531 426.232C681.251 425.816 682.123 425.608 683.147 425.608V427.864H682.571C680.123 427.864 678.899 429.192 678.899 431.848V439H676.715V425.848H678.899V427.984ZM701.484 425.608C702.508 425.608 703.42 425.824 704.22 426.256C705.02 426.672 705.652 427.304 706.116 428.152C706.58 429 706.812 430.032 706.812 431.248V439H704.652V431.56C704.652 430.248 704.324 429.248 703.668 428.56C703.028 427.856 702.156 427.504 701.052 427.504C699.916 427.504 699.012 427.872 698.34 428.608C697.668 429.328 697.332 430.376 697.332 431.752V439H695.172V431.56C695.172 430.248 694.844 429.248 694.188 428.56C693.548 427.856 692.676 427.504 691.572 427.504C690.436 427.504 689.532 427.872 688.86 428.608C688.188 429.328 687.852 430.376 687.852 431.752V439H685.668V425.848H687.852V427.744C688.284 427.056 688.86 426.528 689.58 426.16C690.316 425.792 691.124 425.608 692.004 425.608C693.108 425.608 694.084 425.856 694.932 426.352C695.78 426.848 696.412 427.576 696.828 428.536C697.196 427.608 697.804 426.888 698.652 426.376C699.5 425.864 700.444 425.608 701.484 425.608ZM715.051 439.216C714.043 439.216 713.139 439.048 712.339 438.712C711.539 438.36 710.907 437.88 710.443 437.272C709.979 436.648 709.723 435.936 709.675 435.136H711.931C711.995 435.792 712.299 436.328 712.843 436.744C713.403 437.16 714.131 437.368 715.027 437.368C715.859 437.368 716.515 437.184 716.995 436.816C717.475 436.448 717.715 435.984 717.715 435.424C717.715 434.848 717.459 434.424 716.947 434.152C716.435 433.864 715.643 433.584 714.571 433.312C713.595 433.056 712.795 432.8 712.171 432.544C711.563 432.272 711.035 431.88 710.587 431.368C710.155 430.84 709.939 430.152 709.939 429.304C709.939 428.632 710.139 428.016 710.539 427.456C710.939 426.896 711.507 426.456 712.243 426.136C712.979 425.8 713.819 425.632 714.763 425.632C716.219 425.632 717.395 426 718.291 426.736C719.187 427.472 719.667 428.48 719.731 429.76H717.547C717.499 429.072 717.219 428.52 716.707 428.104C716.211 427.688 715.539 427.48 714.691 427.48C713.907 427.48 713.283 427.648 712.819 427.984C712.355 428.32 712.123 428.76 712.123 429.304C712.123 429.736 712.259 430.096 712.531 430.384C712.819 430.656 713.171 430.88 713.587 431.056C714.019 431.216 714.611 431.4 715.363 431.608C716.307 431.864 717.075 432.12 717.667 432.376C718.259 432.616 718.763 432.984 719.179 433.48C719.611 433.976 719.835 434.624 719.851 435.424C719.851 436.144 719.651 436.792 719.251 437.368C718.851 437.944 718.283 438.4 717.547 438.736C716.827 439.056 715.995 439.216 715.051 439.216ZM742.172 439L739.988 436.792C739.172 437.64 738.3 438.272 737.372 438.688C736.444 439.088 735.396 439.288 734.228 439.288C733.076 439.288 732.052 439.08 731.156 438.664C730.276 438.248 729.588 437.656 729.092 436.888C728.612 436.12 728.372 435.224 728.372 434.2C728.372 433.032 728.7 432.008 729.356 431.128C730.028 430.232 731.012 429.528 732.308 429.016C731.796 428.408 731.428 427.848 731.204 427.336C730.98 426.824 730.868 426.264 730.868 425.656C730.868 424.952 731.044 424.32 731.396 423.76C731.764 423.184 732.284 422.736 732.956 422.416C733.628 422.096 734.404 421.936 735.284 421.936C736.148 421.936 736.9 422.104 737.54 422.44C738.18 422.776 738.66 423.248 738.98 423.856C739.3 424.448 739.444 425.112 739.412 425.848H737.228C737.244 425.192 737.06 424.68 736.676 424.312C736.292 423.928 735.796 423.736 735.188 423.736C734.548 423.736 734.028 423.92 733.628 424.288C733.244 424.64 733.052 425.096 733.052 425.656C733.052 426.136 733.18 426.6 733.436 427.048C733.708 427.496 734.156 428.048 734.78 428.704L739.772 433.72L740.204 433.048L741.836 430.312H744.188L742.22 433.72C741.948 434.2 741.628 434.704 741.26 435.232L745.028 439H742.172ZM734.228 437.416C735.092 437.416 735.868 437.248 736.556 436.912C737.26 436.576 737.924 436.056 738.548 435.352L733.628 430.408C731.58 431.192 730.556 432.432 730.556 434.128C730.556 435.072 730.892 435.856 731.564 436.48C732.252 437.104 733.14 437.416 734.228 437.416ZM752.657 430.624C752.657 428.992 753.025 427.528 753.761 426.232C754.497 424.92 755.497 423.896 756.761 423.16C758.041 422.424 759.457 422.056 761.009 422.056C762.833 422.056 764.425 422.496 765.785 423.376C767.145 424.256 768.137 425.504 768.761 427.12H766.145C765.681 426.112 765.009 425.336 764.129 424.792C763.265 424.248 762.225 423.976 761.009 423.976C759.841 423.976 758.793 424.248 757.865 424.792C756.937 425.336 756.209 426.112 755.681 427.12C755.153 428.112 754.889 429.28 754.889 430.624C754.889 431.952 755.153 433.12 755.681 434.128C756.209 435.12 756.937 435.888 757.865 436.432C758.793 436.976 759.841 437.248 761.009 437.248C762.225 437.248 763.265 436.984 764.129 436.456C765.009 435.912 765.681 435.136 766.145 434.128H768.761C768.137 435.728 767.145 436.968 765.785 437.848C764.425 438.712 762.833 439.144 761.009 439.144C759.457 439.144 758.041 438.784 756.761 438.064C755.497 437.328 754.497 436.312 753.761 435.016C753.025 433.72 752.657 432.256 752.657 430.624ZM777.748 439.216C776.516 439.216 775.396 438.936 774.388 438.376C773.396 437.816 772.612 437.024 772.036 436C771.476 434.96 771.196 433.76 771.196 432.4C771.196 431.056 771.484 429.872 772.06 428.848C772.652 427.808 773.452 427.016 774.46 426.472C775.468 425.912 776.596 425.632 777.844 425.632C779.092 425.632 780.22 425.912 781.228 426.472C782.236 427.016 783.028 427.8 783.604 428.824C784.196 429.848 784.492 431.04 784.492 432.4C784.492 433.76 784.188 434.96 783.58 436C782.988 437.024 782.18 437.816 781.156 438.376C780.132 438.936 778.996 439.216 777.748 439.216ZM777.748 437.296C778.532 437.296 779.268 437.112 779.956 436.744C780.644 436.376 781.196 435.824 781.612 435.088C782.044 434.352 782.26 433.456 782.26 432.4C782.26 431.344 782.052 430.448 781.636 429.712C781.22 428.976 780.676 428.432 780.004 428.08C779.332 427.712 778.604 427.528 777.82 427.528C777.02 427.528 776.284 427.712 775.612 428.08C774.956 428.432 774.428 428.976 774.028 429.712C773.628 430.448 773.428 431.344 773.428 432.4C773.428 433.472 773.62 434.376 774.004 435.112C774.404 435.848 774.932 436.4 775.588 436.768C776.244 437.12 776.964 437.296 777.748 437.296ZM793.772 425.608C795.372 425.608 796.668 426.096 797.66 427.072C798.652 428.032 799.148 429.424 799.148 431.248V439H796.988V431.56C796.988 430.248 796.66 429.248 796.004 428.56C795.348 427.856 794.452 427.504 793.316 427.504C792.164 427.504 791.244 427.864 790.556 428.584C789.884 429.304 789.548 430.352 789.548 431.728V439H787.364V425.848H789.548V427.72C789.98 427.048 790.564 426.528 791.3 426.16C792.052 425.792 792.876 425.608 793.772 425.608ZM801.899 432.376C801.899 431.032 802.171 429.856 802.715 428.848C803.259 427.824 804.003 427.032 804.947 426.472C805.907 425.912 806.979 425.632 808.163 425.632C809.187 425.632 810.139 425.872 811.019 426.352C811.899 426.816 812.571 427.432 813.035 428.2V421.24H815.243V439H813.035V436.528C812.603 437.312 811.963 437.96 811.115 438.472C810.267 438.968 809.275 439.216 808.139 439.216C806.971 439.216 805.907 438.928 804.947 438.352C804.003 437.776 803.259 436.968 802.715 435.928C802.171 434.888 801.899 433.704 801.899 432.376ZM813.035 432.4C813.035 431.408 812.835 430.544 812.435 429.808C812.035 429.072 811.491 428.512 810.803 428.128C810.131 427.728 809.387 427.528 808.571 427.528C807.755 427.528 807.011 427.72 806.339 428.104C805.667 428.488 805.131 429.048 804.731 429.784C804.331 430.52 804.131 431.384 804.131 432.376C804.131 433.384 804.331 434.264 804.731 435.016C805.131 435.752 805.667 436.32 806.339 436.72C807.011 437.104 807.755 437.296 808.571 437.296C809.387 437.296 810.131 437.104 810.803 436.72C811.491 436.32 812.035 435.752 812.435 435.016C812.835 434.264 813.035 433.392 813.035 432.4ZM820.062 423.712C819.646 423.712 819.294 423.568 819.006 423.28C818.718 422.992 818.574 422.64 818.574 422.224C818.574 421.808 818.718 421.456 819.006 421.168C819.294 420.88 819.646 420.736 820.062 420.736C820.462 420.736 820.798 420.88 821.07 421.168C821.358 421.456 821.502 421.808 821.502 422.224C821.502 422.64 821.358 422.992 821.07 423.28C820.798 423.568 820.462 423.712 820.062 423.712ZM821.118 425.848V439H818.934V425.848H821.118ZM827.504 427.648V435.4C827.504 436.04 827.64 436.496 827.912 436.768C828.184 437.024 828.656 437.152 829.328 437.152H830.936V439H828.968C827.752 439 826.84 438.72 826.232 438.16C825.624 437.6 825.32 436.68 825.32 435.4V427.648H823.616V425.848H825.32V422.536H827.504V425.848H830.936V427.648H827.504ZM834.71 423.712C834.294 423.712 833.942 423.568 833.654 423.28C833.366 422.992 833.222 422.64 833.222 422.224C833.222 421.808 833.366 421.456 833.654 421.168C833.942 420.88 834.294 420.736 834.71 420.736C835.11 420.736 835.446 420.88 835.718 421.168C836.006 421.456 836.15 421.808 836.15 422.224C836.15 422.64 836.006 422.992 835.718 423.28C835.446 423.568 835.11 423.712 834.71 423.712ZM835.766 425.848V439H833.582V425.848H835.766ZM845.225 439.216C843.993 439.216 842.873 438.936 841.865 438.376C840.873 437.816 840.089 437.024 839.513 436C838.953 434.96 838.673 433.76 838.673 432.4C838.673 431.056 838.961 429.872 839.537 428.848C840.129 427.808 840.929 427.016 841.937 426.472C842.945 425.912 844.073 425.632 845.321 425.632C846.569 425.632 847.697 425.912 848.705 426.472C849.713 427.016 850.505 427.8 851.081 428.824C851.673 429.848 851.969 431.04 851.969 432.4C851.969 433.76 851.665 434.96 851.057 436C850.465 437.024 849.657 437.816 848.633 438.376C847.609 438.936 846.473 439.216 845.225 439.216ZM845.225 437.296C846.009 437.296 846.745 437.112 847.433 436.744C848.121 436.376 848.673 435.824 849.089 435.088C849.521 434.352 849.737 433.456 849.737 432.4C849.737 431.344 849.529 430.448 849.113 429.712C848.697 428.976 848.153 428.432 847.481 428.08C846.809 427.712 846.081 427.528 845.297 427.528C844.497 427.528 843.761 427.712 843.089 428.08C842.433 428.432 841.905 428.976 841.505 429.712C841.105 430.448 840.905 431.344 840.905 432.4C840.905 433.472 841.097 434.376 841.481 435.112C841.881 435.848 842.409 436.4 843.065 436.768C843.721 437.12 844.441 437.296 845.225 437.296ZM861.248 425.608C862.848 425.608 864.144 426.096 865.136 427.072C866.128 428.032 866.624 429.424 866.624 431.248V439H864.464V431.56C864.464 430.248 864.136 429.248 863.48 428.56C862.824 427.856 861.928 427.504 860.792 427.504C859.64 427.504 858.72 427.864 858.032 428.584C857.36 429.304 857.024 430.352 857.024 431.728V439H854.84V425.848H857.024V427.72C857.456 427.048 858.04 426.528 858.776 426.16C859.528 425.792 860.352 425.608 861.248 425.608Z" fill="white"/>
<path d="M378.304 386.272V388.048H371.032V393.688H376.936V395.464H371.032V403H368.848V386.272H378.304ZM386.678 403.216C385.446 403.216 384.326 402.936 383.318 402.376C382.326 401.816 381.542 401.024 380.966 400C380.406 398.96 380.126 397.76 380.126 396.4C380.126 395.056 380.414 393.872 380.99 392.848C381.582 391.808 382.382 391.016 383.39 390.472C384.398 389.912 385.526 389.632 386.774 389.632C388.022 389.632 389.15 389.912 390.158 390.472C391.166 391.016 391.958 391.8 392.534 392.824C393.126 393.848 393.422 395.04 393.422 396.4C393.422 397.76 393.118 398.96 392.51 400C391.918 401.024 391.11 401.816 390.086 402.376C389.062 402.936 387.926 403.216 386.678 403.216ZM386.678 401.296C387.462 401.296 388.198 401.112 388.886 400.744C389.574 400.376 390.126 399.824 390.542 399.088C390.974 398.352 391.19 397.456 391.19 396.4C391.19 395.344 390.982 394.448 390.566 393.712C390.15 392.976 389.606 392.432 388.934 392.08C388.262 391.712 387.534 391.528 386.75 391.528C385.95 391.528 385.214 391.712 384.542 392.08C383.886 392.432 383.358 392.976 382.958 393.712C382.558 394.448 382.358 395.344 382.358 396.4C382.358 397.472 382.55 398.376 382.934 399.112C383.334 399.848 383.862 400.4 384.518 400.768C385.174 401.12 385.894 401.296 386.678 401.296ZM398.477 391.984C398.861 391.232 399.405 390.648 400.109 390.232C400.829 389.816 401.701 389.608 402.725 389.608V391.864H402.149C399.701 391.864 398.477 393.192 398.477 395.848V403H396.293V389.848H398.477V391.984ZM410.829 394.624C410.829 392.992 411.197 391.528 411.933 390.232C412.669 388.92 413.669 387.896 414.933 387.16C416.213 386.424 417.629 386.056 419.181 386.056C421.005 386.056 422.597 386.496 423.957 387.376C425.317 388.256 426.309 389.504 426.933 391.12H424.317C423.853 390.112 423.181 389.336 422.301 388.792C421.437 388.248 420.397 387.976 419.181 387.976C418.013 387.976 416.965 388.248 416.037 388.792C415.109 389.336 414.381 390.112 413.853 391.12C413.325 392.112 413.061 393.28 413.061 394.624C413.061 395.952 413.325 397.12 413.853 398.128C414.381 399.12 415.109 399.888 416.037 400.432C416.965 400.976 418.013 401.248 419.181 401.248C420.397 401.248 421.437 400.984 422.301 400.456C423.181 399.912 423.853 399.136 424.317 398.128H426.933C426.309 399.728 425.317 400.968 423.957 401.848C422.597 402.712 421.005 403.144 419.181 403.144C417.629 403.144 416.213 402.784 414.933 402.064C413.669 401.328 412.669 400.312 411.933 399.016C411.197 397.72 410.829 396.256 410.829 394.624ZM436.712 389.608C437.704 389.608 438.6 389.824 439.4 390.256C440.2 390.672 440.824 391.304 441.272 392.152C441.736 393 441.968 394.032 441.968 395.248V403H439.808V395.56C439.808 394.248 439.48 393.248 438.824 392.56C438.168 391.856 437.272 391.504 436.136 391.504C434.984 391.504 434.064 391.864 433.376 392.584C432.704 393.304 432.368 394.352 432.368 395.728V403H430.184V385.24H432.368V391.72C432.8 391.048 433.392 390.528 434.144 390.16C434.912 389.792 435.768 389.608 436.712 389.608ZM446.664 387.712C446.248 387.712 445.896 387.568 445.608 387.28C445.32 386.992 445.176 386.64 445.176 386.224C445.176 385.808 445.32 385.456 445.608 385.168C445.896 384.88 446.248 384.736 446.664 384.736C447.064 384.736 447.4 384.88 447.672 385.168C447.96 385.456 448.104 385.808 448.104 386.224C448.104 386.64 447.96 386.992 447.672 387.28C447.4 387.568 447.064 387.712 446.664 387.712ZM447.72 389.848V403H445.536V389.848H447.72ZM453.626 385.24V403H451.442V385.24H453.626ZM456.532 396.376C456.532 395.032 456.804 393.856 457.348 392.848C457.892 391.824 458.636 391.032 459.58 390.472C460.54 389.912 461.612 389.632 462.796 389.632C463.82 389.632 464.772 389.872 465.652 390.352C466.532 390.816 467.204 391.432 467.668 392.2V385.24H469.876V403H467.668V400.528C467.236 401.312 466.596 401.96 465.748 402.472C464.9 402.968 463.908 403.216 462.772 403.216C461.604 403.216 460.54 402.928 459.58 402.352C458.636 401.776 457.892 400.968 457.348 399.928C456.804 398.888 456.532 397.704 456.532 396.376ZM467.668 396.4C467.668 395.408 467.468 394.544 467.068 393.808C466.668 393.072 466.124 392.512 465.436 392.128C464.764 391.728 464.02 391.528 463.204 391.528C462.388 391.528 461.644 391.72 460.972 392.104C460.3 392.488 459.764 393.048 459.364 393.784C458.964 394.52 458.764 395.384 458.764 396.376C458.764 397.384 458.964 398.264 459.364 399.016C459.764 399.752 460.3 400.32 460.972 400.72C461.644 401.104 462.388 401.296 463.204 401.296C464.02 401.296 464.764 401.104 465.436 400.72C466.124 400.32 466.668 399.752 467.068 399.016C467.468 398.264 467.668 397.392 467.668 396.4ZM475.751 391.984C476.135 391.232 476.679 390.648 477.383 390.232C478.103 389.816 478.975 389.608 479.999 389.608V391.864H479.423C476.975 391.864 475.751 393.192 475.751 395.848V403H473.567V389.848H475.751V391.984ZM494.52 395.92C494.52 396.336 494.496 396.776 494.448 397.24H483.936C484.016 398.536 484.456 399.552 485.256 400.288C486.072 401.008 487.056 401.368 488.208 401.368C489.152 401.368 489.936 401.152 490.56 400.72C491.2 400.272 491.648 399.68 491.904 398.944H494.256C493.904 400.208 493.2 401.24 492.144 402.04C491.088 402.824 489.776 403.216 488.208 403.216C486.96 403.216 485.84 402.936 484.848 402.376C483.872 401.816 483.104 401.024 482.544 400C481.984 398.96 481.704 397.76 481.704 396.4C481.704 395.04 481.976 393.848 482.52 392.824C483.064 391.8 483.824 391.016 484.8 390.472C485.792 389.912 486.928 389.632 488.208 389.632C489.456 389.632 490.56 389.904 491.52 390.448C492.48 390.992 493.216 391.744 493.728 392.704C494.256 393.648 494.52 394.72 494.52 395.92ZM492.264 395.464C492.264 394.632 492.08 393.92 491.712 393.328C491.344 392.72 490.84 392.264 490.2 391.96C489.576 391.64 488.88 391.48 488.112 391.48C487.008 391.48 486.064 391.832 485.28 392.536C484.512 393.24 484.072 394.216 483.96 395.464H492.264ZM503.811 389.608C505.411 389.608 506.707 390.096 507.699 391.072C508.691 392.032 509.187 393.424 509.187 395.248V403H507.027V395.56C507.027 394.248 506.699 393.248 506.043 392.56C505.387 391.856 504.491 391.504 503.355 391.504C502.203 391.504 501.283 391.864 500.595 392.584C499.923 393.304 499.587 394.352 499.587 395.728V403H497.403V389.848H499.587V391.72C500.019 391.048 500.603 390.528 501.339 390.16C502.091 389.792 502.915 389.608 503.811 389.608Z" fill="white"/>
<path d="M378.304 422.272V424.048H371.032V429.688H376.936V431.464H371.032V439H368.848V422.272H378.304ZM386.678 439.216C385.446 439.216 384.326 438.936 383.318 438.376C382.326 437.816 381.542 437.024 380.966 436C380.406 434.96 380.126 433.76 380.126 432.4C380.126 431.056 380.414 429.872 380.99 428.848C381.582 427.808 382.382 427.016 383.39 426.472C384.398 425.912 385.526 425.632 386.774 425.632C388.022 425.632 389.15 425.912 390.158 426.472C391.166 427.016 391.958 427.8 392.534 428.824C393.126 429.848 393.422 431.04 393.422 432.4C393.422 433.76 393.118 434.96 392.51 436C391.918 437.024 391.11 437.816 390.086 438.376C389.062 438.936 387.926 439.216 386.678 439.216ZM386.678 437.296C387.462 437.296 388.198 437.112 388.886 436.744C389.574 436.376 390.126 435.824 390.542 435.088C390.974 434.352 391.19 433.456 391.19 432.4C391.19 431.344 390.982 430.448 390.566 429.712C390.15 428.976 389.606 428.432 388.934 428.08C388.262 427.712 387.534 427.528 386.75 427.528C385.95 427.528 385.214 427.712 384.542 428.08C383.886 428.432 383.358 428.976 382.958 429.712C382.558 430.448 382.358 431.344 382.358 432.4C382.358 433.472 382.55 434.376 382.934 435.112C383.334 435.848 383.862 436.4 384.518 436.768C385.174 437.12 385.894 437.296 386.678 437.296ZM398.477 427.984C398.861 427.232 399.405 426.648 400.109 426.232C400.829 425.816 401.701 425.608 402.725 425.608V427.864H402.149C399.701 427.864 398.477 429.192 398.477 431.848V439H396.293V425.848H398.477V427.984ZM413.829 424.048V429.64H419.925V431.44H413.829V437.2H420.645V439H411.645V422.248H420.645V424.048H413.829ZM430.358 425.608C431.958 425.608 433.254 426.096 434.246 427.072C435.238 428.032 435.734 429.424 435.734 431.248V439H433.574V431.56C433.574 430.248 433.246 429.248 432.59 428.56C431.934 427.856 431.038 427.504 429.902 427.504C428.75 427.504 427.83 427.864 427.142 428.584C426.47 429.304 426.134 430.352 426.134 431.728V439H423.95V425.848H426.134V427.72C426.566 427.048 427.15 426.528 427.886 426.16C428.638 425.792 429.462 425.608 430.358 425.608ZM441.965 427.648V435.4C441.965 436.04 442.101 436.496 442.373 436.768C442.645 437.024 443.117 437.152 443.789 437.152H445.397V439H443.429C442.213 439 441.301 438.72 440.693 438.16C440.085 437.6 439.781 436.68 439.781 435.4V427.648H438.077V425.848H439.781V422.536H441.965V425.848H445.397V427.648H441.965ZM460.043 431.92C460.043 432.336 460.019 432.776 459.971 433.24H449.459C449.539 434.536 449.979 435.552 450.779 436.288C451.595 437.008 452.579 437.368 453.731 437.368C454.675 437.368 455.459 437.152 456.083 436.72C456.723 436.272 457.171 435.68 457.427 434.944H459.779C459.427 436.208 458.723 437.24 457.667 438.04C456.611 438.824 455.299 439.216 453.731 439.216C452.483 439.216 451.363 438.936 450.371 438.376C449.395 437.816 448.627 437.024 448.067 436C447.507 434.96 447.227 433.76 447.227 432.4C447.227 431.04 447.499 429.848 448.043 428.824C448.587 427.8 449.347 427.016 450.323 426.472C451.315 425.912 452.451 425.632 453.731 425.632C454.979 425.632 456.083 425.904 457.043 426.448C458.003 426.992 458.739 427.744 459.251 428.704C459.779 429.648 460.043 430.72 460.043 431.92ZM457.787 431.464C457.787 430.632 457.603 429.92 457.235 429.328C456.867 428.72 456.363 428.264 455.723 427.96C455.099 427.64 454.403 427.48 453.635 427.48C452.531 427.48 451.587 427.832 450.803 428.536C450.035 429.24 449.595 430.216 449.483 431.464H457.787ZM465.11 427.984C465.494 427.232 466.038 426.648 466.742 426.232C467.462 425.816 468.334 425.608 469.358 425.608V427.864H468.782C466.334 427.864 465.11 429.192 465.11 431.848V439H462.926V425.848H465.11V427.984ZM474.063 428.272C474.495 427.52 475.135 426.896 475.983 426.4C476.847 425.888 477.847 425.632 478.983 425.632C480.151 425.632 481.207 425.912 482.151 426.472C483.111 427.032 483.863 427.824 484.407 428.848C484.951 429.856 485.223 431.032 485.223 432.376C485.223 433.704 484.951 434.888 484.407 435.928C483.863 436.968 483.111 437.776 482.151 438.352C481.207 438.928 480.151 439.216 478.983 439.216C477.863 439.216 476.871 438.968 476.007 438.472C475.159 437.96 474.511 437.328 474.063 436.576V445.24H471.879V425.848H474.063V428.272ZM482.991 432.376C482.991 431.384 482.791 430.52 482.391 429.784C481.991 429.048 481.447 428.488 480.759 428.104C480.087 427.72 479.343 427.528 478.527 427.528C477.727 427.528 476.983 427.728 476.295 428.128C475.623 428.512 475.079 429.08 474.663 429.832C474.263 430.568 474.063 431.424 474.063 432.4C474.063 433.392 474.263 434.264 474.663 435.016C475.079 435.752 475.623 436.32 476.295 436.72C476.983 437.104 477.727 437.296 478.527 437.296C479.343 437.296 480.087 437.104 480.759 436.72C481.447 436.32 481.991 435.752 482.391 435.016C482.791 434.264 482.991 433.384 482.991 432.376ZM490.282 427.984C490.666 427.232 491.21 426.648 491.914 426.232C492.634 425.816 493.506 425.608 494.53 425.608V427.864H493.954C491.506 427.864 490.282 429.192 490.282 431.848V439H488.098V425.848H490.282V427.984ZM498.179 423.712C497.763 423.712 497.411 423.568 497.123 423.28C496.835 422.992 496.691 422.64 496.691 422.224C496.691 421.808 496.835 421.456 497.123 421.168C497.411 420.88 497.763 420.736 498.179 420.736C498.579 420.736 498.915 420.88 499.187 421.168C499.475 421.456 499.619 421.808 499.619 422.224C499.619 422.64 499.475 422.992 499.187 423.28C498.915 423.568 498.579 423.712 498.179 423.712ZM499.235 425.848V439H497.051V425.848H499.235ZM507.613 439.216C506.605 439.216 505.701 439.048 504.901 438.712C504.101 438.36 503.469 437.88 503.005 437.272C502.541 436.648 502.285 435.936 502.237 435.136H504.493C504.557 435.792 504.861 436.328 505.405 436.744C505.965 437.16 506.693 437.368 507.589 437.368C508.421 437.368 509.077 437.184 509.557 436.816C510.037 436.448 510.277 435.984 510.277 435.424C510.277 434.848 510.021 434.424 509.509 434.152C508.997 433.864 508.205 433.584 507.133 433.312C506.157 433.056 505.357 432.8 504.733 432.544C504.125 432.272 503.597 431.88 503.149 431.368C502.717 430.84 502.501 430.152 502.501 429.304C502.501 428.632 502.701 428.016 503.101 427.456C503.501 426.896 504.069 426.456 504.805 426.136C505.541 425.8 506.381 425.632 507.325 425.632C508.781 425.632 509.957 426 510.853 426.736C511.749 427.472 512.229 428.48 512.293 429.76H510.109C510.061 429.072 509.781 428.52 509.269 428.104C508.773 427.688 508.101 427.48 507.253 427.48C506.469 427.48 505.845 427.648 505.381 427.984C504.917 428.32 504.685 428.76 504.685 429.304C504.685 429.736 504.821 430.096 505.093 430.384C505.381 430.656 505.733 430.88 506.149 431.056C506.581 431.216 507.173 431.4 507.925 431.608C508.869 431.864 509.637 432.12 510.229 432.376C510.821 432.616 511.325 432.984 511.741 433.48C512.173 433.976 512.397 434.624 512.413 435.424C512.413 436.144 512.213 436.792 511.813 437.368C511.413 437.944 510.845 438.4 510.109 438.736C509.389 439.056 508.557 439.216 507.613 439.216ZM527.496 431.92C527.496 432.336 527.472 432.776 527.424 433.24H516.912C516.992 434.536 517.432 435.552 518.232 436.288C519.048 437.008 520.032 437.368 521.184 437.368C522.128 437.368 522.912 437.152 523.536 436.72C524.176 436.272 524.624 435.68 524.88 434.944H527.232C526.88 436.208 526.176 437.24 525.12 438.04C524.064 438.824 522.752 439.216 521.184 439.216C519.936 439.216 518.816 438.936 517.824 438.376C516.848 437.816 516.08 437.024 515.52 436C514.96 434.96 514.68 433.76 514.68 432.4C514.68 431.04 514.952 429.848 515.496 428.824C516.04 427.8 516.8 427.016 517.776 426.472C518.768 425.912 519.904 425.632 521.184 425.632C522.432 425.632 523.536 425.904 524.496 426.448C525.456 426.992 526.192 427.744 526.704 428.704C527.232 429.648 527.496 430.72 527.496 431.92ZM525.24 431.464C525.24 430.632 525.056 429.92 524.688 429.328C524.32 428.72 523.816 428.264 523.176 427.96C522.552 427.64 521.856 427.48 521.088 427.48C519.984 427.48 519.04 427.832 518.256 428.536C517.488 429.24 517.048 430.216 516.936 431.464H525.24ZM535.035 439.216C534.027 439.216 533.123 439.048 532.323 438.712C531.523 438.36 530.891 437.88 530.427 437.272C529.963 436.648 529.707 435.936 529.659 435.136H531.915C531.979 435.792 532.283 436.328 532.827 436.744C533.387 437.16 534.115 437.368 535.011 437.368C535.843 437.368 536.499 437.184 536.979 436.816C537.459 436.448 537.699 435.984 537.699 435.424C537.699 434.848 537.443 434.424 536.931 434.152C536.419 433.864 535.627 433.584 534.555 433.312C533.579 433.056 532.779 432.8 532.155 432.544C531.547 432.272 531.019 431.88 530.571 431.368C530.139 430.84 529.923 430.152 529.923 429.304C529.923 428.632 530.123 428.016 530.523 427.456C530.923 426.896 531.491 426.456 532.227 426.136C532.963 425.8 533.803 425.632 534.747 425.632C536.203 425.632 537.379 426 538.275 426.736C539.171 427.472 539.651 428.48 539.715 429.76H537.531C537.483 429.072 537.203 428.52 536.691 428.104C536.195 427.688 535.523 427.48 534.675 427.48C533.891 427.48 533.267 427.648 532.803 427.984C532.339 428.32 532.107 428.76 532.107 429.304C532.107 429.736 532.243 430.096 532.515 430.384C532.803 430.656 533.155 430.88 533.571 431.056C534.003 431.216 534.595 431.4 535.347 431.608C536.291 431.864 537.059 432.12 537.651 432.376C538.243 432.616 538.747 432.984 539.163 433.48C539.595 433.976 539.819 434.624 539.835 435.424C539.835 436.144 539.635 436.792 539.235 437.368C538.835 437.944 538.267 438.4 537.531 438.736C536.811 439.056 535.979 439.216 535.035 439.216Z" fill="white"/>
<path d="M646.12 290.8C646.12 288.603 646.611 286.64 647.592 284.912C648.595 283.163 649.949 281.808 651.656 280.848C653.384 279.867 655.315 279.376 657.448 279.376C659.944 279.376 662.131 280.016 664.008 281.296C665.885 282.576 667.197 284.347 667.944 286.608H662.792C662.28 285.541 661.555 284.741 660.616 284.208C659.699 283.675 658.632 283.408 657.416 283.408C656.115 283.408 654.952 283.717 653.928 284.336C652.925 284.933 652.136 285.787 651.56 286.896C651.005 288.005 650.728 289.307 650.728 290.8C650.728 292.272 651.005 293.573 651.56 294.704C652.136 295.813 652.925 296.677 653.928 297.296C654.952 297.893 656.115 298.192 657.416 298.192C658.632 298.192 659.699 297.925 660.616 297.392C661.555 296.837 662.28 296.027 662.792 294.96H667.944C667.197 297.243 665.885 299.024 664.008 300.304C662.152 301.563 659.965 302.192 657.448 302.192C655.315 302.192 653.384 301.712 651.656 300.752C649.949 299.771 648.595 298.416 647.592 296.688C646.611 294.96 646.12 292.997 646.12 290.8ZM679.643 302.288C677.936 302.288 676.4 301.915 675.035 301.168C673.669 300.4 672.592 299.323 671.803 297.936C671.035 296.549 670.651 294.949 670.651 293.136C670.651 291.323 671.045 289.723 671.835 288.336C672.645 286.949 673.744 285.883 675.131 285.136C676.517 284.368 678.064 283.984 679.771 283.984C681.477 283.984 683.024 284.368 684.411 285.136C685.797 285.883 686.885 286.949 687.675 288.336C688.485 289.723 688.891 291.323 688.891 293.136C688.891 294.949 688.475 296.549 687.642 297.936C686.832 299.323 685.723 300.4 684.315 301.168C682.928 301.915 681.371 302.288 679.643 302.288ZM679.643 298.384C680.453 298.384 681.211 298.192 681.915 297.808C682.64 297.403 683.216 296.805 683.643 296.016C684.069 295.227 684.283 294.267 684.283 293.136C684.283 291.451 683.835 290.16 682.939 289.264C682.064 288.347 680.987 287.888 679.707 287.888C678.427 287.888 677.349 288.347 676.475 289.264C675.621 290.16 675.195 291.451 675.195 293.136C675.195 294.821 675.611 296.123 676.443 297.04C677.296 297.936 678.363 298.384 679.643 298.384ZM714.193 284.016C716.369 284.016 718.118 284.688 719.441 286.032C720.785 287.355 721.457 289.211 721.457 291.6V302H716.977V292.208C716.977 290.821 716.625 289.765 715.921 289.04C715.217 288.293 714.257 287.92 713.041 287.92C711.825 287.92 710.854 288.293 710.129 289.04C709.425 289.765 709.073 290.821 709.073 292.208V302H704.593V292.208C704.593 290.821 704.241 289.765 703.537 289.04C702.833 288.293 701.873 287.92 700.657 287.92C699.419 287.92 698.438 288.293 697.713 289.04C697.009 289.765 696.657 290.821 696.657 292.208V302H692.177V284.272H696.657V286.416C697.233 285.669 697.969 285.083 698.865 284.656C699.782 284.229 700.785 284.016 701.873 284.016C703.259 284.016 704.497 284.315 705.585 284.912C706.673 285.488 707.515 286.32 708.113 287.408C708.689 286.384 709.521 285.563 710.609 284.944C711.718 284.325 712.913 284.016 714.193 284.016ZM730.188 286.832C730.764 286.021 731.553 285.349 732.556 284.816C733.58 284.261 734.743 283.984 736.044 283.984C737.559 283.984 738.924 284.357 740.14 285.104C741.377 285.851 742.348 286.917 743.052 288.304C743.777 289.669 744.14 291.259 744.14 293.072C744.14 294.885 743.777 296.496 743.052 297.904C742.348 299.291 741.377 300.368 740.14 301.136C738.924 301.904 737.559 302.288 736.044 302.288C734.743 302.288 733.591 302.021 732.588 301.488C731.607 300.955 730.807 300.283 730.188 299.472V310.448H725.708V284.272H730.188V286.832ZM739.564 293.072C739.564 292.005 739.34 291.088 738.892 290.32C738.465 289.531 737.889 288.933 737.164 288.528C736.46 288.123 735.692 287.92 734.86 287.92C734.049 287.92 733.281 288.133 732.556 288.56C731.852 288.965 731.276 289.563 730.828 290.352C730.401 291.141 730.188 292.069 730.188 293.136C730.188 294.203 730.401 295.131 730.828 295.92C731.276 296.709 731.852 297.317 732.556 297.744C733.281 298.149 734.049 298.352 734.86 298.352C735.692 298.352 736.46 298.139 737.164 297.712C737.889 297.285 738.465 296.677 738.892 295.888C739.34 295.099 739.564 294.16 739.564 293.072ZM746.243 293.072C746.243 291.28 746.595 289.691 747.299 288.304C748.025 286.917 748.996 285.851 750.212 285.104C751.449 284.357 752.825 283.984 754.34 283.984C755.662 283.984 756.814 284.251 757.796 284.784C758.798 285.317 759.598 285.989 760.196 286.8V284.272H764.708V302H760.196V299.408C759.62 300.24 758.82 300.933 757.796 301.488C756.793 302.021 755.63 302.288 754.308 302.288C752.814 302.288 751.449 301.904 750.212 301.136C748.996 300.368 748.025 299.291 747.299 297.904C746.595 296.496 746.243 294.885 746.243 293.072ZM760.196 293.136C760.196 292.048 759.982 291.12 759.556 290.352C759.129 289.563 758.553 288.965 757.828 288.56C757.102 288.133 756.324 287.92 755.492 287.92C754.66 287.92 753.892 288.123 753.188 288.528C752.484 288.933 751.908 289.531 751.46 290.32C751.033 291.088 750.82 292.005 750.82 293.072C750.82 294.139 751.033 295.077 751.46 295.888C751.908 296.677 752.484 297.285 753.188 297.712C753.913 298.139 754.681 298.352 755.492 298.352C756.324 298.352 757.102 298.149 757.828 297.744C758.553 297.317 759.129 296.72 759.556 295.952C759.982 295.163 760.196 294.224 760.196 293.136ZM778.907 284.016C781.019 284.016 782.726 284.688 784.027 286.032C785.328 287.355 785.979 289.211 785.979 291.6V302H781.499V292.208C781.499 290.8 781.147 289.723 780.443 288.976C779.739 288.208 778.779 287.824 777.563 287.824C776.326 287.824 775.344 288.208 774.619 288.976C773.915 289.723 773.563 290.8 773.563 292.208V302H769.083V284.272H773.563V286.48C774.16 285.712 774.918 285.115 775.835 284.688C776.774 284.24 777.798 284.016 778.907 284.016ZM807.199 284.272L796.223 310.384H791.455L795.295 301.552L788.191 284.272H793.215L797.791 296.656L802.431 284.272H807.199Z" fill="white"/>
<path d="M976 279.664V283.28H966.688V289.008H973.824V292.56H966.688V302H962.208V279.664H976ZM987.049 302.288C985.342 302.288 983.806 301.915 982.441 301.168C981.075 300.4 979.998 299.323 979.209 297.936C978.441 296.549 978.057 294.949 978.057 293.136C978.057 291.323 978.451 289.723 979.241 288.336C980.051 286.949 981.15 285.883 982.537 285.136C983.923 284.368 985.47 283.984 987.177 283.984C988.883 283.984 990.43 284.368 991.817 285.136C993.203 285.883 994.291 286.949 995.081 288.336C995.891 289.723 996.297 291.323 996.297 293.136C996.297 294.949 995.881 296.549 995.049 297.936C994.238 299.323 993.129 300.4 991.721 301.168C990.334 301.915 988.777 302.288 987.049 302.288ZM987.049 298.384C987.859 298.384 988.617 298.192 989.321 297.808C990.046 297.403 990.622 296.805 991.049 296.016C991.475 295.227 991.689 294.267 991.689 293.136C991.689 291.451 991.241 290.16 990.345 289.264C989.47 288.347 988.393 287.888 987.113 287.888C985.833 287.888 984.755 288.347 983.881 289.264C983.027 290.16 982.601 291.451 982.601 293.136C982.601 294.821 983.017 296.123 983.849 297.04C984.702 297.936 985.769 298.384 987.049 298.384ZM1004.06 278.32V302H999.583V278.32H1004.06ZM1012.97 278.32V302H1008.49V278.32H1012.97ZM1025.27 302.288C1023.56 302.288 1022.02 301.915 1020.66 301.168C1019.29 300.4 1018.22 299.323 1017.43 297.936C1016.66 296.549 1016.28 294.949 1016.28 293.136C1016.28 291.323 1016.67 289.723 1017.46 288.336C1018.27 286.949 1019.37 285.883 1020.76 285.136C1022.14 284.368 1023.69 283.984 1025.4 283.984C1027.1 283.984 1028.65 284.368 1030.04 285.136C1031.42 285.883 1032.51 286.949 1033.3 288.336C1034.11 289.723 1034.52 291.323 1034.52 293.136C1034.52 294.949 1034.1 296.549 1033.27 297.936C1032.46 299.323 1031.35 300.4 1029.94 301.168C1028.55 301.915 1027 302.288 1025.27 302.288ZM1025.27 298.384C1026.08 298.384 1026.84 298.192 1027.54 297.808C1028.26 297.403 1028.84 296.805 1029.27 296.016C1029.69 295.227 1029.91 294.267 1029.91 293.136C1029.91 291.451 1029.46 290.16 1028.56 289.264C1027.69 288.347 1026.61 287.888 1025.33 287.888C1024.05 287.888 1022.97 288.347 1022.1 289.264C1021.25 290.16 1020.82 291.451 1020.82 293.136C1020.82 294.821 1021.24 296.123 1022.07 297.04C1022.92 297.936 1023.99 298.384 1025.27 298.384ZM1062.38 284.272L1057.19 302H1052.36L1049.13 289.616L1045.9 302H1041.03L1035.82 284.272H1040.36L1043.5 297.776L1046.89 284.272H1051.63L1054.95 297.744L1058.09 284.272H1062.38ZM1089.16 284.272V302H1084.65V299.76C1084.07 300.528 1083.32 301.136 1082.38 301.584C1081.46 302.011 1080.46 302.224 1079.37 302.224C1077.98 302.224 1076.76 301.936 1075.69 301.36C1074.62 300.763 1073.78 299.899 1073.16 298.768C1072.57 297.616 1072.27 296.251 1072.27 294.672V284.272H1076.75V294.032C1076.75 295.44 1077.1 296.528 1077.8 297.296C1078.51 298.043 1079.47 298.416 1080.68 298.416C1081.92 298.416 1082.89 298.043 1083.59 297.296C1084.3 296.528 1084.65 295.44 1084.65 294.032V284.272H1089.16ZM1100.37 302.288C1098.92 302.288 1097.62 302.032 1096.46 301.52C1095.31 300.987 1094.39 300.272 1093.71 299.376C1093.05 298.48 1092.69 297.488 1092.62 296.4H1097.14C1097.22 297.083 1097.55 297.648 1098.13 298.096C1098.72 298.544 1099.46 298.768 1100.34 298.768C1101.19 298.768 1101.85 298.597 1102.32 298.256C1102.81 297.915 1103.06 297.477 1103.06 296.944C1103.06 296.368 1102.76 295.941 1102.16 295.664C1101.58 295.365 1100.66 295.045 1099.38 294.704C1098.05 294.384 1096.96 294.053 1096.11 293.712C1095.28 293.371 1094.55 292.848 1093.94 292.144C1093.34 291.44 1093.04 290.491 1093.04 289.296C1093.04 288.315 1093.32 287.419 1093.87 286.608C1094.45 285.797 1095.26 285.157 1096.3 284.688C1097.37 284.219 1098.62 283.984 1100.05 283.984C1102.16 283.984 1103.84 284.517 1105.1 285.584C1106.36 286.629 1107.06 288.048 1107.18 289.84H1102.9C1102.83 289.136 1102.53 288.581 1102 288.176C1101.49 287.749 1100.79 287.536 1099.92 287.536C1099.11 287.536 1098.48 287.685 1098.03 287.984C1097.6 288.283 1097.39 288.699 1097.39 289.232C1097.39 289.829 1097.69 290.288 1098.29 290.608C1098.88 290.907 1099.81 291.216 1101.07 291.536C1102.35 291.856 1103.41 292.187 1104.24 292.528C1105.07 292.869 1105.79 293.403 1106.38 294.128C1107 294.832 1107.32 295.771 1107.34 296.944C1107.34 297.968 1107.06 298.885 1106.48 299.696C1105.92 300.507 1105.11 301.147 1104.05 301.616C1103 302.064 1101.78 302.288 1100.37 302.288Z" fill="white"/>
<path d="M614.02 608.9C616.473 607.06 618.367 605.413 619.7 603.96C621.047 602.493 621.72 601.06 621.72 599.66C621.72 598.74 621.487 598.007 621.02 597.46C620.567 596.9 619.82 596.62 618.78 596.62C617.767 596.62 616.98 596.94 616.42 597.58C615.873 598.207 615.567 599.047 615.5 600.1H614.14C614.22 598.62 614.673 597.473 615.5 596.66C616.34 595.833 617.433 595.42 618.78 595.42C620.073 595.42 621.12 595.787 621.92 596.52C622.72 597.24 623.12 598.267 623.12 599.6C623.12 601.213 622.447 602.78 621.1 604.3C619.767 605.807 618.12 607.28 616.16 608.72H623.56V609.9H614.02V608.9ZM625.745 602.7C625.745 600.407 626.099 598.627 626.805 597.36C627.512 596.093 628.779 595.46 630.605 595.46C632.432 595.46 633.699 596.093 634.405 597.36C635.112 598.627 635.465 600.407 635.465 602.7C635.465 605.033 635.112 606.84 634.405 608.12C633.699 609.4 632.432 610.04 630.605 610.04C628.765 610.04 627.492 609.4 626.785 608.12C626.092 606.84 625.745 605.033 625.745 602.7ZM634.085 602.7C634.085 601.46 633.999 600.413 633.825 599.56C633.652 598.707 633.312 598.02 632.805 597.5C632.299 596.98 631.565 596.72 630.605 596.72C629.645 596.72 628.912 596.98 628.405 597.5C627.899 598.02 627.559 598.707 627.385 599.56C627.212 600.413 627.125 601.46 627.125 602.7C627.125 603.98 627.212 605.053 627.385 605.92C627.559 606.773 627.899 607.46 628.405 607.98C628.912 608.5 629.645 608.76 630.605 608.76C631.565 608.76 632.299 608.5 632.805 607.98C633.312 607.46 633.652 606.773 633.825 605.92C633.999 605.053 634.085 603.98 634.085 602.7ZM637.79 608.9C640.243 607.06 642.136 605.413 643.47 603.96C644.816 602.493 645.49 601.06 645.49 599.66C645.49 598.74 645.256 598.007 644.79 597.46C644.336 596.9 643.59 596.62 642.55 596.62C641.536 596.62 640.75 596.94 640.19 597.58C639.643 598.207 639.336 599.047 639.27 600.1H637.91C637.99 598.62 638.443 597.473 639.27 596.66C640.11 595.833 641.203 595.42 642.55 595.42C643.843 595.42 644.89 595.787 645.69 596.52C646.49 597.24 646.89 598.267 646.89 599.6C646.89 601.213 646.216 602.78 644.87 604.3C643.536 605.807 641.89 607.28 639.93 608.72H647.33V609.9H637.79V608.9ZM649.455 599.32C649.548 598.107 650.015 597.153 650.855 596.46C651.708 595.753 652.808 595.4 654.155 595.4C655.048 595.4 655.815 595.56 656.455 595.88C657.095 596.2 657.575 596.64 657.895 597.2C658.228 597.747 658.395 598.367 658.395 599.06C658.395 599.9 658.148 600.627 657.655 601.24C657.162 601.853 656.462 602.233 655.555 602.38V602.48C656.502 602.667 657.255 603.08 657.815 603.72C658.375 604.347 658.655 605.173 658.655 606.2C658.655 607.347 658.268 608.287 657.495 609.02C656.735 609.74 655.628 610.1 654.175 610.1C652.788 610.1 651.648 609.74 650.755 609.02C649.862 608.287 649.348 607.253 649.215 605.92H650.575C650.695 606.813 651.068 607.54 651.695 608.1C652.322 608.647 653.148 608.92 654.175 608.92C655.188 608.92 655.962 608.653 656.495 608.12C657.042 607.587 657.315 606.907 657.315 606.08C657.315 604.053 655.855 603.04 652.935 603.04H652.495V601.86H652.955C655.675 601.86 657.035 600.973 657.035 599.2C657.035 598.427 656.782 597.807 656.275 597.34C655.768 596.86 655.048 596.62 654.115 596.62C653.208 596.62 652.455 596.86 651.855 597.34C651.268 597.807 650.922 598.467 650.815 599.32H649.455ZM662.794 607.68L660.714 612.92H659.754L661.234 607.68H662.794ZM678.559 606.68H672.199L670.979 610H669.499L674.599 596.2H676.179L681.259 610H679.779L678.559 606.68ZM678.139 605.52L675.379 597.96L672.619 605.52H678.139ZM684.906 595.2V610H683.506V595.2H684.906ZM689.477 595.2V610H688.077V595.2H689.477ZM699.535 601.02C699.842 600.34 700.308 599.813 700.935 599.44C701.575 599.067 702.355 598.88 703.275 598.88V600.34H702.895C701.882 600.34 701.068 600.613 700.455 601.16C699.842 601.707 699.535 602.62 699.535 603.9V610H698.135V599.08H699.535V601.02ZM706.081 597.02C705.801 597.02 705.561 596.92 705.361 596.72C705.161 596.52 705.061 596.273 705.061 595.98C705.061 595.687 705.161 595.447 705.361 595.26C705.561 595.06 705.801 594.96 706.081 594.96C706.361 594.96 706.601 595.06 706.801 595.26C707.001 595.447 707.101 595.687 707.101 595.98C707.101 596.273 707.001 596.52 706.801 596.72C706.601 596.92 706.361 597.02 706.081 597.02ZM706.781 599.08V610H705.381V599.08H706.781ZM714.532 598.92C715.558 598.92 716.452 599.16 717.212 599.64C717.972 600.12 718.518 600.727 718.852 601.46V599.08H720.252V610.28C720.252 611.28 720.032 612.167 719.592 612.94C719.165 613.713 718.565 614.307 717.792 614.72C717.018 615.147 716.138 615.36 715.152 615.36C713.752 615.36 712.585 615.027 711.652 614.36C710.732 613.693 710.158 612.787 709.932 611.64H711.312C711.552 612.4 712.005 613.007 712.672 613.46C713.352 613.913 714.178 614.14 715.152 614.14C715.858 614.14 716.492 613.987 717.052 613.68C717.612 613.387 718.052 612.947 718.372 612.36C718.692 611.773 718.852 611.08 718.852 610.28V607.58C718.505 608.327 717.952 608.947 717.192 609.44C716.445 609.92 715.558 610.16 714.532 610.16C713.532 610.16 712.632 609.927 711.832 609.46C711.045 608.993 710.425 608.333 709.972 607.48C709.532 606.627 709.312 605.64 709.312 604.52C709.312 603.4 709.532 602.42 709.972 601.58C710.425 600.727 711.045 600.073 711.832 599.62C712.632 599.153 713.532 598.92 714.532 598.92ZM718.852 604.54C718.852 603.66 718.672 602.887 718.312 602.22C717.952 601.553 717.458 601.04 716.832 600.68C716.218 600.32 715.538 600.14 714.792 600.14C714.018 600.14 713.325 600.313 712.712 600.66C712.098 601.007 711.612 601.513 711.252 602.18C710.905 602.833 710.732 603.613 710.732 604.52C710.732 605.413 710.905 606.2 711.252 606.88C711.612 607.547 712.098 608.06 712.712 608.42C713.325 608.767 714.018 608.94 714.792 608.94C715.538 608.94 716.218 608.76 716.832 608.4C717.458 608.04 717.952 607.527 718.312 606.86C718.672 606.193 718.852 605.42 718.852 604.54ZM728.648 598.88C729.474 598.88 730.214 599.053 730.868 599.4C731.534 599.747 732.054 600.28 732.428 601C732.814 601.707 733.008 602.573 733.008 603.6V610H731.628V603.76C731.628 602.573 731.328 601.667 730.728 601.04C730.141 600.413 729.334 600.1 728.308 600.1C727.254 600.1 726.414 600.433 725.788 601.1C725.161 601.767 724.848 602.747 724.848 604.04V610H723.448V595.2H724.848V600.94C725.194 600.287 725.701 599.78 726.368 599.42C727.048 599.06 727.808 598.88 728.648 598.88ZM737.924 600.26V607.04C737.924 607.707 738.051 608.167 738.304 608.42C738.557 608.673 739.004 608.8 739.644 608.8H740.924V610H739.424C738.437 610 737.704 609.773 737.224 609.32C736.744 608.853 736.504 608.093 736.504 607.04V600.26H734.984V599.08H736.504V596.34H737.924V599.08H740.924V600.26H737.924ZM750.121 601.02C750.428 600.34 750.894 599.813 751.521 599.44C752.161 599.067 752.941 598.88 753.861 598.88V600.34H753.481C752.468 600.34 751.654 600.613 751.041 601.16C750.428 601.707 750.121 602.62 750.121 603.9V610H748.721V599.08H750.121V601.02ZM765.847 603.98C765.847 604.46 765.834 604.827 765.807 605.08H756.747C756.787 605.907 756.987 606.613 757.347 607.2C757.707 607.787 758.181 608.233 758.767 608.54C759.354 608.833 759.994 608.98 760.687 608.98C761.594 608.98 762.354 608.76 762.967 608.32C763.594 607.88 764.007 607.287 764.207 606.54H765.687C765.421 607.607 764.847 608.48 763.967 609.16C763.101 609.827 762.007 610.16 760.687 610.16C759.661 610.16 758.741 609.933 757.927 609.48C757.114 609.013 756.474 608.36 756.007 607.52C755.554 606.667 755.327 605.673 755.327 604.54C755.327 603.407 755.554 602.413 756.007 601.56C756.461 600.707 757.094 600.053 757.907 599.6C758.721 599.147 759.647 598.92 760.687 598.92C761.727 598.92 762.634 599.147 763.407 599.6C764.194 600.053 764.794 600.667 765.207 601.44C765.634 602.2 765.847 603.047 765.847 603.98ZM764.427 603.94C764.441 603.127 764.274 602.433 763.927 601.86C763.594 601.287 763.134 600.853 762.547 600.56C761.961 600.267 761.321 600.12 760.627 600.12C759.587 600.12 758.701 600.453 757.967 601.12C757.234 601.787 756.827 602.727 756.747 603.94H764.427ZM772.169 610.16C770.915 610.16 769.889 609.873 769.089 609.3C768.302 608.713 767.862 607.92 767.769 606.92H769.209C769.275 607.533 769.562 608.033 770.069 608.42C770.589 608.793 771.282 608.98 772.149 608.98C772.909 608.98 773.502 608.8 773.929 608.44C774.369 608.08 774.589 607.633 774.589 607.1C774.589 606.727 774.469 606.42 774.229 606.18C773.989 605.94 773.682 605.753 773.309 605.62C772.949 605.473 772.455 605.32 771.829 605.16C771.015 604.947 770.355 604.733 769.849 604.52C769.342 604.307 768.909 603.993 768.549 603.58C768.202 603.153 768.029 602.587 768.029 601.88C768.029 601.347 768.189 600.853 768.509 600.4C768.829 599.947 769.282 599.587 769.869 599.32C770.455 599.053 771.122 598.92 771.869 598.92C773.042 598.92 773.989 599.22 774.709 599.82C775.429 600.407 775.815 601.22 775.869 602.26H774.469C774.429 601.62 774.175 601.107 773.709 600.72C773.255 600.32 772.629 600.12 771.829 600.12C771.122 600.12 770.549 600.287 770.109 600.62C769.669 600.953 769.449 601.367 769.449 601.86C769.449 602.287 769.575 602.64 769.829 602.92C770.095 603.187 770.422 603.4 770.809 603.56C771.195 603.707 771.715 603.873 772.369 604.06C773.155 604.273 773.782 604.48 774.249 604.68C774.715 604.88 775.115 605.173 775.449 605.56C775.782 605.947 775.955 606.46 775.969 607.1C775.969 607.687 775.809 608.213 775.489 608.68C775.169 609.133 774.722 609.493 774.149 609.76C773.575 610.027 772.915 610.16 772.169 610.16ZM788.484 603.98C788.484 604.46 788.471 604.827 788.444 605.08H779.384C779.424 605.907 779.624 606.613 779.984 607.2C780.344 607.787 780.817 608.233 781.404 608.54C781.991 608.833 782.631 608.98 783.324 608.98C784.231 608.98 784.991 608.76 785.604 608.32C786.231 607.88 786.644 607.287 786.844 606.54H788.324C788.057 607.607 787.484 608.48 786.604 609.16C785.737 609.827 784.644 610.16 783.324 610.16C782.297 610.16 781.377 609.933 780.564 609.48C779.751 609.013 779.111 608.36 778.644 607.52C778.191 606.667 777.964 605.673 777.964 604.54C777.964 603.407 778.191 602.413 778.644 601.56C779.097 600.707 779.731 600.053 780.544 599.6C781.357 599.147 782.284 598.92 783.324 598.92C784.364 598.92 785.271 599.147 786.044 599.6C786.831 600.053 787.431 600.667 787.844 601.44C788.271 602.2 788.484 603.047 788.484 603.98ZM787.064 603.94C787.077 603.127 786.911 602.433 786.564 601.86C786.231 601.287 785.771 600.853 785.184 600.56C784.597 600.267 783.957 600.12 783.264 600.12C782.224 600.12 781.337 600.453 780.604 601.12C779.871 601.787 779.464 602.727 779.384 603.94H787.064ZM794.925 608.64L798.605 599.08H800.085L795.705 610H794.125L789.745 599.08H791.245L794.925 608.64ZM811.863 603.98C811.863 604.46 811.849 604.827 811.823 605.08H802.763C802.803 605.907 803.003 606.613 803.363 607.2C803.723 607.787 804.196 608.233 804.783 608.54C805.369 608.833 806.009 608.98 806.703 608.98C807.609 608.98 808.369 608.76 808.983 608.32C809.609 607.88 810.023 607.287 810.223 606.54H811.703C811.436 607.607 810.863 608.48 809.983 609.16C809.116 609.827 808.023 610.16 806.703 610.16C805.676 610.16 804.756 609.933 803.943 609.48C803.129 609.013 802.489 608.36 802.023 607.52C801.569 606.667 801.343 605.673 801.343 604.54C801.343 603.407 801.569 602.413 802.023 601.56C802.476 600.707 803.109 600.053 803.923 599.6C804.736 599.147 805.663 598.92 806.703 598.92C807.743 598.92 808.649 599.147 809.423 599.6C810.209 600.053 810.809 600.667 811.223 601.44C811.649 602.2 811.863 603.047 811.863 603.98ZM810.443 603.94C810.456 603.127 810.289 602.433 809.943 601.86C809.609 601.287 809.149 600.853 808.563 600.56C807.976 600.267 807.336 600.12 806.643 600.12C805.603 600.12 804.716 600.453 803.983 601.12C803.249 601.787 802.843 602.727 802.763 603.94H810.443ZM813.784 604.52C813.784 603.4 814.011 602.42 814.464 601.58C814.918 600.727 815.538 600.073 816.324 599.62C817.124 599.153 818.024 598.92 819.024 598.92C819.984 598.92 820.851 599.153 821.624 599.62C822.398 600.087 822.964 600.693 823.324 601.44V595.2H824.724V610H823.324V607.56C822.991 608.32 822.444 608.947 821.684 609.44C820.924 609.92 820.031 610.16 819.004 610.16C818.004 610.16 817.104 609.927 816.304 609.46C815.518 608.993 814.898 608.333 814.444 607.48C814.004 606.627 813.784 605.64 813.784 604.52ZM823.324 604.54C823.324 603.66 823.144 602.887 822.784 602.22C822.424 601.553 821.931 601.04 821.304 600.68C820.691 600.32 820.011 600.14 819.264 600.14C818.491 600.14 817.798 600.313 817.184 600.66C816.571 601.007 816.084 601.513 815.724 602.18C815.378 602.833 815.204 603.613 815.204 604.52C815.204 605.413 815.378 606.2 815.724 606.88C816.084 607.547 816.571 608.06 817.184 608.42C817.798 608.767 818.491 608.94 819.264 608.94C820.011 608.94 820.691 608.76 821.304 608.4C821.931 608.04 822.424 607.527 822.784 606.86C823.144 606.193 823.324 605.42 823.324 604.54Z" fill="white"/>
</svg>
